/* XPM */
static char *out[] = {
/* columns rows colors chars-per-pixel */
"50 50 151 2 ",
"   c black",
".  c #010101",
"X  c #020202",
"o  c gray1",
"O  c #040404",
"+  c gray2",
"@  c #060606",
"#  c #070707",
"$  c gray3",
"%  c #090909",
"&  c gray4",
"*  c #0B0B0B",
"=  c gray5",
"-  c gray6",
";  c #111111",
":  c gray7",
">  c #131313",
",  c gray9",
"<  c gray10",
"1  c #1B1B1B",
"2  c gray11",
"3  c #202020",
"4  c #222222",
"5  c #232323",
"6  c gray14",
"7  c #252525",
"8  c #282828",
"9  c gray16",
"0  c #2A2A2A",
"q  c gray17",
"w  c #2C2C2C",
"e  c #2D2D2D",
"r  c gray18",
"t  c #2F2F2F",
"y  c gray19",
"u  c #313131",
"i  c #323232",
"p  c gray20",
"a  c #343434",
"s  c #353535",
"d  c gray21",
"f  c #373737",
"g  c gray22",
"h  c #393939",
"j  c gray23",
"k  c #3E3E3E",
"l  c #3F3F3F",
"z  c gray25",
"x  c #414141",
"c  c gray28",
"v  c #484848",
"b  c gray29",
"n  c #4B4B4B",
"m  c #4E4E4E",
"M  c #515151",
"N  c gray32",
"B  c gray33",
"V  c #565656",
"C  c #585858",
"Z  c gray35",
"A  c #5A5A5A",
"S  c #5B5B5B",
"D  c gray36",
"F  c #5D5D5D",
"G  c gray37",
"H  c #606060",
"J  c #646464",
"K  c #656565",
"L  c gray40",
"P  c #676767",
"I  c #686868",
"U  c DimGray",
"Y  c #6A6A6A",
"T  c gray42",
"R  c #6C6C6C",
"E  c #6D6D6D",
"W  c gray43",
"Q  c #6F6F6F",
"!  c gray45",
"~  c #747474",
"^  c gray46",
"/  c #767676",
"(  c #7C7C7C",
")  c gray50",
"_  c #838383",
"`  c #848484",
"'  c #888888",
"]  c #898989",
"[  c gray54",
"{  c gray55",
"}  c #8D8D8D",
"|  c #8E8E8E",
" . c gray56",
".. c gray57",
"X. c #939393",
"o. c gray59",
"O. c #979797",
"+. c #9A9A9A",
"@. c gray61",
"#. c gray62",
"$. c #9F9F9F",
"%. c #A2A2A2",
"&. c #A7A7A7",
"*. c gray66",
"=. c #AEAEAE",
"-. c #B1B1B1",
";. c gray70",
":. c gray73",
">. c #BBBBBB",
",. c gray",
"<. c #C0C0C0",
"1. c #C6C6C6",
"2. c gray78",
"3. c #C8C8C8",
"4. c gray79",
"5. c #CDCDCD",
"6. c #D7D7D7",
"7. c #D8D8D8",
"8. c gray86",
"9. c gray87",
"0. c #DFDFDF",
"q. c gray88",
"w. c #E2E2E2",
"e. c #E4E4E4",
"r. c gray90",
"t. c #E6E6E6",
"y. c #E7E7E7",
"u. c gray91",
"i. c #E9E9E9",
"p. c #EAEAEA",
"a. c gray92",
"s. c #ECECEC",
"d. c gray93",
"f. c #EEEEEE",
"g. c #EFEFEF",
"h. c gray94",
"j. c #F1F1F1",
"k. c gray95",
"l. c #F3F3F3",
"z. c #F4F4F4",
"x. c gray96",
"c. c #F6F6F6",
"v. c gray97",
"b. c #F8F8F8",
"n. c #F9F9F9",
"m. c gray98",
"M. c #FBFBFB",
"N. c gray99",
"B. c #FDFDFD",
"V. c #FEFEFE",
"C. c white",
/* pixels */
"C.C.C.C.C.C.C.C.C.C.C.C.C.C.C.C.C.C.C.C.C.C.C.C.C.C.C.C.C.C.C.C.C.C.C.C.C.C.C.C.C.C.C.C.C.C.C.C.C.C.",
"C.C.C.C.C.C.C.C.C.C.C.C.C.C.C.C.C.C.C.C.C.C.C.C.C.C.C.C.C.C.C.C.C.C.C.C.C.C.C.C.C.C.C.C.C.C.C.C.C.C.",
"C.C.C.C.C.C.C.C.C.C.C.C.C.C.C.C.C.C.C.C.C.C.C.C.C.C.C.C.C.C.C.C.C.C.C.C.C.C.C.C.C.C.C.C.C.C.C.C.C.C.",
"C.C.C.C.C.C.C.C.C.C.C.C.C.C.C.C.C.C.C.C.C.C.C.C.C.C.C.C.C.C.C.C.C.C.C.C.C.C.C.C.C.C.C.C.C.C.C.C.C.C.",
"C.C.C.C.C.C.C.C.C.C.C.C.C.C.C.C.C.C.C.C.C.C.C.C.C.C.C.C.C.C.C.C.C.C.C.C.C.C.C.C.C.C.C.C.C.C.C.C.C.C.",
"C.C.C.C.C.C.C.C.C.C.C.C.C.C.C.C.C.C.C.C.C.C.C.C.C.C.C.C.C.C.C.C.C.C.C.C.C.C.C.C.C.C.C.C.C.C.C.C.C.C.",
"C.C.C.C.C.C.C.C.C.C.C.C.C.C.C.C.C.C.C.C.C.C.C.C.C.C.C.C.C.C.C.C.C.C.C.C.C.C.C.C.C.C.C.C.C.C.C.C.C.C.",
"C.C.C.C.C.C.C.C.C.C.C.C.C.C.C.C.C.C.C.C.C.C.C.C.C.C.C.C.C.C.C.C.C.C.C.C.C.C.C.C.C.C.C.C.C.C.C.C.C.C.",
"C.C.V.m.f.z.p.p.f.j.t.h.p.j.f.f.p.f.s.b.w.B.V.C.M.C.C.b.C.h.s.s.f.y.s.u.g.z.t.f.g.u.i.g.k.a.C.N.C.C.",
"B.M.C.z.P t e 9 r s e p 0 0 8 y y g 0 6 h ( m.V.C.N.M.C.%.0 d w e f a e q w u p e p u w e B w.C.C.C.",
"N.C.C.x.b     $   .   @ % &   .   + .   $ 2 ;.C.m.C.N.C.O.  . o   X   # %   o           X q s.M.C.C.",
"C.C.v.l.c     X $ o       X   .       O     j y.C.C.C.m.o.O     $ O         X       O + . 3 g.B.C.C.",
"N.b.C.V.l   *       % +   . . $           # + _ M.l.C.C.| @ O .     % .   $ # o ;   +   . 9 e.C.C.C.",
"C.C.C.N.} J L B 9     . X       o   $     O   = <.C.C.C.>.D E A x O     X         2 c Z W ' a.V.C.C.",
"C.C.V.B.C.C.B.C.,.p                         * o b q.C.V.C.c.C.N.u.F . . $     & < ;.n.C.C.k.C.C.C.C.",
"C.n.C.b.C.m.C.N.V.v . . @         X     @ X   .   X.m.m.C.C.B.N.C.` %       #   t i.C.N.B.C.C.B.C.C.",
"C.C.C.C.C.C.C.C.V.D         .     @   .       @ O : 3.V.C.C.B.B.C.@.X           d z.V.C.C.C.V.C.C.C.",
"C.C.C.C.C.C.C.C.V.D         .   > .   O     o     % n a.B.V.C.C.C.@.X           d z.V.C.C.C.V.C.C.C.",
"C.C.C.C.C.C.C.C.V.D         .   m z X   +   @         X.V.V.C.C.C.@.X           d z.V.C.C.C.V.C.C.C.",
"C.C.C.C.C.C.C.C.V.D         .   ^ :.: .   #   o @   O 7 4.C.m.V.C.@.X           d z.V.C.C.C.V.C.C.C.",
"C.C.C.C.C.C.C.C.V.D         .   ! b./ X   o   .   X +   C g.C.V.C.@.X           d z.V.C.C.C.V.C.C.C.",
"C.C.C.C.C.C.C.C.V.D         .   W V.t.u     %     #     = X.C.C.C.@.X           d z.V.C.C.C.V.C.C.C.",
"C.C.C.C.C.C.C.C.V.D         .   W C.C.=.; #   o   o   O . t 3.C.C.@.X           d z.V.C.C.C.V.C.C.C.",
"C.C.C.C.C.C.C.C.V.D         .   W b.C.V.P     o       .     G b.C.@.X           d z.V.C.C.C.V.C.C.C.",
"C.C.C.C.C.C.C.C.B.D         .   E C.m.C.0.e   .       O   +   *.C.+.  .     . O d z.V.C.C.C.V.C.C.C.",
"C.C.C.C.C.C.C.C.B.D         .   P C.C.z.N.=.+ +   $   . o   * e 7.&.X o   @     d z.V.C.C.C.V.C.C.C.",
"C.C.C.C.C.C.C.C.B.D         .   Y C.b.V.C.m.K   +   X   X       Q { # O   O     d z.V.C.C.C.V.C.C.C.",
"C.C.C.C.C.C.C.C.B.D         .   W C.v.C.C.n.6.8     +     O   * : v X     X   o d z.V.C.C.C.V.C.C.C.",
"C.C.C.C.C.C.C.C.B.D         .   T V.C.M.C.B.V.$.+ o         o X   -     + @     d z.V.C.C.C.V.C.C.C.",
"C.C.C.C.C.C.C.C.B.D         .   T C.C.V.C.C.C.h.S       +   #   +   X   O       d z.V.C.C.C.V.C.C.C.",
"C.C.C.C.C.C.C.C.B.D         .   Q C.M.C.N.N.C.B.5.y     O   . X     o .       @ d z.V.C.C.C.V.C.C.C.",
"C.C.C.C.C.C.C.C.B.D         .   E N.C.M.C.C.x.C.C...+   .   $     &     O .     d z.V.C.C.C.V.C.C.C.",
"C.C.C.C.M.V.n.C.m.G   @     .   Y C.C.C.b.C.B.C.V.x.M .   +                     d z.V.C.C.C.V.C.C.C.",
"B.M.M.C.C.C.C.C.C.H   +     X   ~ N.m.C.C.C.C.C.C.v.5.5 O     o                 d z.V.C.C.C.V.C.C.C.",
"C.C.C.C.C.C.B.m.C.N     .   X . E B.m.V.C.C.V.C.B.C.C.[ # .                     d z.V.C.C.C.V.C.C.C.",
"B.N.m.C.N.V.C.C.v.v .   @     X S C.C.N.C.B.n.C.B.C.v.d.b   X                   d z.V.C.C.C.V.C.C.C.",
"C.C.V.C.a.r.p.w. .1     X     O 7 -.8.t.p.l.C.N.C.M.C.C.1.,   X                 d z.V.C.C.C.V.C.C.C.",
"C.C.m.d.R p 0 4 :         . X X   > 6 y q / V.M.C.N.C.N.C.]                     d z.V.C.C.C.V.C.C.C.",
"c.C.C.m.x     .   O % #   X     @     O   V C.N.C.C.z.C.M.f.c                   d z.V.C.C.C.V.C.C.C.",
"C.C.n.V.k . . o   @   . . .   O   O     X Z m.C.C.C.C.C.C.v.2.*                 d z.V.C.C.C.V.C.C.C.",
"C.m.C.n.h X   o                 X X   O   S c.C.N.C.b.C.N.C.v.) @ X       X .   i f.C.C.N.C.b.C.C.C.",
"C.v.B.x...E P Y I I I I I I I I U T J Y I #.M.C.N.C.m.C.M.n.C.9.W T I P U Y U I X.m.M.C.N.C.B.V.C.C.",
"B.N.C.C.C.M.M.C.V.V.V.V.V.V.V.V.M.C.B.C.N.n.C.m.B.C.m.C.C.B.C.C.C.C.B.B.V.C.V.B.k.C.M.C.N.C.C.N.C.C.",
"C.C.C.v.C.V.m.C.V.V.V.V.V.V.V.V.V.N.B.V.C.C.C.C.B.C.V.M.C.C.v.b.C.C.V.V.C.C.C.V.C.m.C.C.N.B.C.C.C.C.",
"m.C.V.B.B.C.C.C.V.V.V.V.V.V.V.V.C.N.C.m.x.B.M.N.V.V.C.B.n.C.V.C.C.C.V.V.C.C.C.V.C.n.C.V.V.C.C.C.C.C.",
"C.C.C.C.n.C.C.N.C.C.C.C.C.C.C.C.M.n.C.C.C.C.C.C.C.b.C.C.n.B.C.C.C.C.C.C.C.C.C.C.m.C.C.b.C.C.C.V.C.C.",
"C.B.N.C.B.C.C.C.C.C.C.C.C.C.C.C.C.C.N.N.N.M.C.C.C.N.M.C.C.C.C.m.V.C.C.C.C.C.C.C.C.C.N.V.C.C.C.C.C.C.",
"C.C.C.V.C.N.M.C.C.C.C.C.C.C.C.C.B.C.b.C.C.C.M.C.m.C.V.M.C.C.C.B.C.C.C.C.C.C.C.C.C.C.n.C.B.m.C.C.C.C.",
"C.C.C.C.C.C.C.C.C.C.C.C.C.C.C.C.C.C.C.C.C.C.C.C.C.C.C.C.C.C.C.C.C.C.C.M.b.m.M.m.m.m.m.n.m.B.B.M.v.C.",
"C.C.C.C.C.C.C.C.C.C.C.C.C.C.C.C.C.C.C.C.C.C.C.C.C.C.C.C.C.C.C.C.C.C.B.v.l.l.k.j.k.l.k.j.l.c.c.z.v.C."
};
