/* XPM */
static char *_a9fb87765ca48a9e439792be4192e0dWMPDdlC9lI7pFbQm[] = {
/* columns rows colors chars-per-pixel */
"50 50 234 2 ",
"   c #010101",
".  c #090100",
"X  c #04050A",
"o  c #06090B",
"O  c #0B0C0C",
"+  c #080707",
"@  c #150C08",
"#  c #0D110E",
"$  c #07100B",
"%  c #18120E",
"&  c #0D0D12",
"*  c #090915",
"=  c #130E1B",
"-  c #0D1114",
";  c #0A141B",
":  c #121314",
">  c #15141A",
",  c #14191B",
"<  c #1B1B1C",
"1  c #191617",
"2  c #23160E",
"3  c #281917",
"4  c #361C1C",
"5  c #1A201E",
"6  c #27221B",
"7  c #37241C",
"8  c #0E1923",
"9  c #131622",
"0  c #131B23",
"q  c #1B1C23",
"w  c #1C1C2A",
"e  c #181A27",
"r  c #1B192D",
"t  c #211D24",
"y  c #231E29",
"u  c #2F1D2C",
"i  c #1C232B",
"p  c #1A2326",
"a  c #1E2732",
"s  c #242425",
"d  c #22232B",
"f  c #26292B",
"g  c #2A2A2C",
"h  c #2B2526",
"j  c #362B28",
"k  c #37322E",
"l  c #232432",
"z  c #232933",
"x  c #2C2D33",
"c  c #2C2C3B",
"v  c #252838",
"b  c #352E34",
"n  c #2B3133",
"m  c #2D343B",
"M  c #29353A",
"N  c #333334",
"B  c #3A3634",
"V  c #34343A",
"C  c #353B3C",
"Z  c #3B3C3C",
"A  c #3A373A",
"S  c #29312E",
"D  c #472725",
"F  c #48362B",
"G  c #433B35",
"H  c #483A38",
"J  c #533435",
"K  c #49413B",
"L  c #57453B",
"P  c #65473A",
"I  c #72513E",
"U  c #2C2B42",
"Y  c #393B43",
"T  c #333344",
"R  c #413F46",
"E  c #463D50",
"W  c #3D4245",
"Q  c #3C4449",
"!  c #434444",
"~  c #444649",
"^  c #4B4B4C",
"/  c #494747",
"(  c #554A49",
")  c #55504B",
"_  c #4B4D52",
"`  c #494A53",
"'  c #524D57",
"]  c #4B5356",
"[  c #525354",
"{  c #5C5353",
"}  c #53555A",
"|  c #5B5A5B",
" . c #57585B",
".. c #674B49",
"X. c #665349",
"o. c #7C5C4D",
"O. c #665958",
"+. c #755B56",
"@. c #694E4E",
"#. c #7C614D",
"$. c #64615E",
"%. c #796658",
"&. c #5C5E63",
"*. c #575C64",
"=. c #625E63",
"-. c #685B62",
";. c #5D6265",
":. c #646364",
">. c #64646B",
",. c #6D6C6B",
"<. c #696866",
"1. c #786967",
"2. c #72716D",
"3. c #7E7169",
"4. c #6C6D73",
"5. c #666875",
"6. c #6B7378",
"7. c #737373",
"8. c #7A7675",
"9. c #75757B",
"0. c #797779",
"q. c #7C7B7B",
"w. c #7A7977",
"e. c #706F70",
"r. c #835E52",
"t. c #886A57",
"y. c #8A725E",
"u. c #956A59",
"i. c #A46E5C",
"p. c #866D65",
"a. c #8C766A",
"s. c #8C7B6A",
"d. c #897464",
"f. c #947A6B",
"g. c #9A7D6C",
"h. c #957865",
"j. c #807D7E",
"k. c #887876",
"l. c #947D74",
"z. c #997E76",
"x. c #846970",
"c. c #AC7463",
"v. c #A97966",
"b. c #A97F71",
"n. c #7A807C",
"m. c #98816E",
"M. c #83817E",
"N. c #9C8374",
"B. c #998678",
"V. c #8D806D",
"C. c #A28571",
"Z. c #A38A75",
"A. c #A58B7B",
"S. c #AB8C7C",
"D. c #AC8975",
"F. c #AC927E",
"G. c #B9937C",
"H. c #AB8570",
"J. c #7D7D82",
"K. c #767A84",
"L. c #817F81",
"P. c #7D8488",
"I. c #848384",
"U. c #898585",
"Y. c #85858A",
"T. c #8B8789",
"R. c #84898C",
"E. c #8B8B8B",
"W. c #8A8986",
"Q. c #938C8C",
"!. c #998B85",
"~. c #9A928D",
"^. c #888B93",
"/. c #948D92",
"(. c #8D939A",
"). c #919194",
"_. c #97979A",
"`. c #8E908B",
"'. c #A99689",
"]. c #B39583",
"[. c #B49985",
"{. c #BB9A85",
"}. c #BB9E8B",
"|. c #B49789",
" X c #A59896",
".X c #B89F90",
"XX c #AA8E83",
"oX c #BBA28D",
"OX c #ABA39A",
"+X c #BDA493",
"@X c #B6A59B",
"#X c #B7A69A",
"$X c #969DA3",
"%X c #A79EA5",
"&X c #9BA1A6",
"*X c #9FAAB0",
"=X c #A6A3A7",
"-X c #B3AAA7",
";X c #A8ADB3",
":X c #ABB4BA",
">X c #B5B7BB",
",X c #B6B2AF",
"<X c #C19E89",
"1X c #C3A18B",
"2X c #C0A691",
"3X c #C2A995",
"4X c #C4B6B9",
"5X c #BCBCC3",
"6X c #BBC3C8",
"7X c #B8C9D3",
"8X c #C6C7C9",
"9X c #C7CCD2",
"0X c #C8D5D9",
"qX c #D4DADB",
"wX c #D9CECF",
"eX c #D9DEE1",
"rX c #CFDDE3",
"tX c #E1DFE4",
"yX c #DBE4EA",
"uX c #D7E2E8",
"iX c #DDEBF1",
"pX c #DFF1FB",
"aX c #E9E8EB",
"sX c #E4EDF4",
"dX c #E6EBF6",
"fX c #E5F3FB",
"gX c #EBF4FB",
"hX c #EDFCFE",
"jX c #EAF1F6",
"kX c #F5FCFF",
"lX c #FBFCFD",
"zX c #F4F4F9",
"xX c #F4EAEB",
"cX c #EDE4DF",
/* pixels */
"    . k.l.f.z..XS.h.v.c.c.c.v.G.1Xy.X.+.2.>XqXwX,X3.+.@.F 4 j F P I o.g.C.D.1X{.1X}.2X2X+X+X#X.     ",
"    . l.z.f.N.|.D.h.u.i.c.c.c.G.<Xt.P !.xXzXxXlXlXcX1.3 7 7 7 F P t.f.|.S.D.{.1X{.{.}.}.}.+X#X.     ",
"    . B.z.g.N.].G.H.c.c.c.i.c.G.D.%.1.xXxXaXaX8XE.,.8.L 7 F L #.g.F.|.+XN.D.<X{.{.{.}.}.}.+X#X.     ",
"    . z.f.f.N.A.Z.y.u.v.v.c.D.H.].a. XwX=XL.Z O O # . 2 X.o.t.h.Z.A.|.oXN.C.{.<X{.{.}.2X}..X#X.     ",
"  . . a.p.%.%.y.f.y.y.b.b.D.].C.A.1.1.k.%Xb   1 6 6 @ F %.y.t.t.N.'.!.%.l.S.{.].[.].}.}.}.}.@X.     ",
"  . . l.a.a.s.V.s.m.g.g.g.g.N.N.B.X.O.4XwXH @ % . 2 3 %.#.#.t.y.t.X.L F s.m.F.}.].[.}.}.}.oX#X.     ",
"    . l.k.a.s.s.f.m.d.d.f.f.f.f.m.#.F  X1.2 F ..J ..D ..o.r.t.h.F 7 G L B.B.[.[.}.oXoXoXoX+X#X.     ",
"    . k.l.N.N.N.Z.Z.S.].XXXXXXXX'.%.K K 2 @ 4 ..P J D P r.o.#.y.L j G K !.'.3X2X2X3X3X2X2X3X#X.     ",
"    . B.f.t.h.C.Z.].{.}.<X}.|..X#Xd.H X.j . 2 7 J J D ..o.o.o.y.L j G K !.'.+X2X+X+X2XoX2XoXOX.     ",
"    . B.d.g.h.h.C.C.D.].S.N.XX'.OXM.H O.b 3 % % 3 J +.@.+.+.#.p.) j K G !..X}.oX}.oX2X2X2X3X#X.     ",
"  . . XXA.N.f.g.A.].|.'.'.'. X XI.>.R c q < < k Z < / ) O.+.t.%.) j / G !.'.}.oX|.oX2X2XoX+X@X.     ",
". . . 1.p.a.d.B.B.'.@X-X-X-XI.^ c c Y c c y > f _ , f x b H @.p.( k G H V.B.XXF.].].[.2XoX+X X.     ",
"  . . ( ) 1.x.{ O.U.q.6.6. .m a v T v U U r 9 0 8 a z z x t F p.{ k B G 1.d.f.g.f.f.y.h.d.p.k..     ",
"  X   { ,.O.:.N 9.^.6.K.6.z v v v v l U T a i a p e i a d h @.x.O.k B G %.s.y.h.h.A.Z.C.m.s.k..     ",
"      ;.<.N f ! K.4.5.>.5.*.= l l 8 c v m e ; i a 9 v v r V -.{ $.G G G %.B.N.Z.A.F.Z.Z.A.B.!..     ",
"      R.>.# s 7.=X5X=X=XY.K.T = w * 9 v z 0 ; e w v v l y l c V O.K H G %.m.F.S.N.N.A.A.Z.B.~..     ",
"X   X N : O O.k.1.4XxXkX(.z c = 9 * 9 d i i 0 e i c ` E y w v T W ! / H O.a.d.d.h.Z.g.N.N.B.'..     ",
"      N O 3 H ( 4 3 O.8X*.; e = = 9 * e d 0 p a d y } ' w w e M n } j.k.B.!.s.s.B.s.S.d.z.l.3..     ",
"  o   S # + ( O.x. X=XR.i i e = o q d w e 9 e i w l w V d * 9 i x ` /. X X X X X X X'.!.'.-X-X      ",
"      S o 1 k ( O.k.q.Q ; ; = = X * d d l d i z l l d d w * > w m Y  ._. X_.E.Q.~.OXwX4X-XaXlX      ",
"      p o , N ( H H Y i 0 ; * = , , 9 9 l l m T m z d x q A  .o f ~ Y e.%X_.=X8XaXzXuX_.wXlXjX      ",
"      , # 5 ~ /  . .W m i ; X z f o X X X * e 8 8 l c c O '  X^ 1 N A A E.5XkXjXjXzX>X>XlXzXaX      ",
". . . ,.Z o f Z V Y Q Q p ; o t o i *.(.:X7X7X7X$XY q & 1 L.U.W.K 8.8.{ 0.aXzXzXkXyX$X>X8X5X8X      ",
". . . ( N s f x 1 g ~ V p o . O ~ yXlXkXkXhXhXhXkX(.t -.-.O.K ( k.+.k.1.R tXlXkXkX5X(.8XqXzXlX      ",
". . . =.O.| ^ h b O.k.1.j F ..4 %XlXsXsXfXfXpXpXsX6XA / ( { B K H F H B Q.,X&X>X9X;X6XeXsXaXaX      ",
"  . . 8.8.e.,.{ { 1.+.J J J J F 5XhXsXgXgXdXfXiXrXsX&.+ j ~.Q.~.!.3.( OXlX>X;X(.6.(.P.$X(.R.E.      ",
"      j.I.q.I.q.( k h % j 1.@ O.eXqXsXgXdXkXsXiXuXfX;X& B Q.~.~. X~.O.=X9X9X9X(.*.6.$X*X;X6XaX      ",
"    . L.I.I.n.e.! <.2.2.<.2.) ,XqXrXsXkXzXaXyXyXrXyX$Xf s j. XQ.Q.:.| &.;.6.R.^.6.^.:X;X>X:X6X      ",
"      I.I.W.I.7.Q.Q.E.I.E.`.q._.qX9XP.9.J.' >.rXuX9XQ   : B /.~./.N g n C m Q _ } } ] ] } *. .      ",
"      I.I.U.E.W.U.j.T.E.I.R.7.V 6X6XY V ~ Y x 0XqX6.6._ O  ._./.W.V q < , > > > t d n m W C V X     ",
"    . T.U.U.I.W.T.U./.I.Y._.>.z $X6Xm Q 4.` m 9X:X6.d _.V t Y.E._.W q < f q s h < t , : - , <       ",
"    . U.I.E.Q.E.T.Q.L.Q.E.).z ^.Q R.$XK.P.P.(.$X;XP.d } =XX } _.).| , < < N B H h <.[ : , , ,       ",
"      U.U.U.U.W.W.E.T.Y.).| g ;X> ~ :X9.] } ;.:X&X .Z g 9Xd p R.).q.< o : : < h < | | : , > >       ",
"      I.I.I.I.I.I.E.Y.I.).Z V ;X  s $X4.*.&.m P.;.C f o >XZ X 4.).E.N O O X O   O : < + O & ,       ",
"      I.I.I.I.I.I.T.I.I.).g x J.- i P.9X9X9XP.* 0 ! n   I.f & Y E.I.<.s   O + O +   + O O # -       ",
"      I.I.U.U.U.U.I.Y.Y.E.g , ~   ;.jXkXfXiXgX(.R.] C O _ q & g J.I.W.,.A h s O # # O : O O O       ",
"      I.I.U.I.U.I.I.W.W.q.s & m ^.iXhXfXfXgXgX6.(. .C d N & y > 7.j.8.j.2.2.,.[ s # O : O O :       ",
"      I.I.I.I.I.I.I.I.E.>.> * C hXiXfXfXfXfX0XQ P.&.W N f X > > | L.8.,.<.$.Z S 6 : O O : O O       ",
"      I.I.I.I.I.I.I.I.W.~ : X ` gXiXgXgXyXlX&Xx &.] [ Z X & : > s 7.,.<.| ! B s % 1 # . # +         ",
"      I.I.I.I.I.I.I.Y.I.s ,   >.kXjXjXgXkXyX;.n 4.^ &.;.  O & : 1 | 8.,.:. .^ Z N h 3 < # O O       ",
"      I.I.I.I.I.I.I.I.q.f : * Z 9XeXyX6X_.;.W Y 7.~ ^ I.-   O : + g j.2.,.<.$.| { ) ^ K A N N       ",
"      j.I.L.I.I.q.T.I.[ O : X o X =.I.: x  .^ ! 7.| f &.x + # O O < ,.q.7.7.,.<.<.<.$.$.$.| [       ",
"      L.I.L.I.I.L.L.I.! & & o O   [ L.1 N / g < ,.:.7.V n     O : O / I.8.q.8.7.2.7.,.,.2.2.<.      ",
"      I.I.I.I.L.L.I.E.V o O * O   ^ =.B B A s # =.:.=X[ - * o # O X g I.q.q.q.w.8.w.7.7.2.7.7.      ",
"      q.j.j.I.L.L.J.I.q X O O   > J. .B k B g : 4.4.>.:.~ ,   O O : : 7.q.q.q.q.q.q.q.q.8.7.w.      ",
"      0.q.q.L.L.I.q.9., & O O   x J.~ Z Z N s < R >.5XY.&.V X O & > X [ I.q.q.q.M.q.q.q.q.7.q.      ",
"      0.q.q.L.J.q.I.7.& O O o   _ 7.W / ! B f 1 ~ >.^.9.4.[ X X & : + N q.q.q.q.M.q.q.w.q.q.q.      ",
"      q.q.q.L.q.q.I.>.O & & o   } 9.! ^ ! A N s _ Y.9.9.9.4.& O & & & t 9.q.q.I.q.w.M.q.q.q.q.      ",
"      q.q.q.q.q.0.I.| O : O o X s _ / [ / N Z s  ._.^ _ 4.&.s O O O > > | q.q.q.q.q.q.q.q.q.q.      ",
"      q.q.q.q.q.0.I.| O & o o X g ' / ^ / N ^ A :._.< Z [ p q > O O & O [ q.9.q.q.q.q.q.q.q.q.      "
};
