/* XPM */
static char *_f1d364f9e6a466e9213b7dd52175f50rbsh4TNLzF17hw7p[] = {
/* columns rows colors chars-per-pixel */
"50 50 237 2 ",
"   c #010204",
".  c #01030B",
"X  c #0B0B0D",
"o  c #040B0C",
"O  c #0C0C12",
"+  c #020812",
"@  c #100E12",
"#  c #0A1216",
"$  c #141315",
"%  c #1B1D15",
"&  c #16151A",
"*  c #1C1B1B",
"=  c #161819",
"-  c #110F0A",
";  c #241B18",
":  c #2B1414",
">  c #1D211C",
",  c #1B211A",
"<  c #0F201A",
"1  c #22231C",
"2  c #26271C",
"3  c #191C23",
"4  c #291D23",
"5  c #391F22",
"6  c #1B212A",
"7  c #1D2428",
"8  c #1C3236",
"9  c #232323",
"0  c #262A22",
"q  c #2A2C24",
"w  c #29252A",
"e  c #24292D",
"r  c #2B2C2C",
"t  c #262529",
"y  c #342927",
"u  c #2D3225",
"i  c #2D322B",
"p  c #27302D",
"a  c #33342D",
"s  c #36392C",
"d  c #252A32",
"f  c #2A2C32",
"g  c #252A38",
"h  c #322D32",
"j  c #3A2B30",
"k  c #2D3134",
"l  c #2D353C",
"z  c #273438",
"x  c #343433",
"c  c #3A3535",
"v  c #3A3D34",
"b  c #33353A",
"n  c #323A3C",
"m  c #3D3B3B",
"M  c #383835",
"N  c #433A3A",
"B  c #3D4239",
"V  c #3B4336",
"C  c #44433D",
"Z  c #45483B",
"A  c #52403E",
"S  c #333C42",
"D  c #363B46",
"F  c #423F43",
"G  c #3C444B",
"H  c #3D4D4C",
"J  c #374546",
"K  c #3B4751",
"L  c #334E4E",
"P  c #444343",
"I  c #494544",
"U  c #454944",
"Y  c #4B4B45",
"T  c #424B4D",
"R  c #47474B",
"E  c #544A49",
"W  c #4E544A",
"Q  c #525349",
"!  c #454C53",
"~  c #484D57",
"^  c #495658",
"/  c #545254",
"(  c #5C5552",
")  c #5C5A55",
"_  c #555C5B",
"`  c #57585A",
"'  c #514F52",
"]  c #67554F",
"[  c #645D5C",
"{  c #675657",
"}  c #6F4B4F",
"|  c #5B6259",
" . c #64615D",
".. c #6B615F",
"X. c #76655D",
"o. c #4E5961",
"O. c #535C63",
"+. c #5A5A63",
"@. c #675E65",
"#. c #765860",
"$. c #5C6264",
"%. c #58656A",
"&. c #536569",
"*. c #646363",
"=. c #6C6564",
"-. c #6D6B66",
";. c #62646C",
":. c #6C6B6A",
">. c #656A6C",
",. c #726A66",
"<. c #746D6A",
"1. c #796E6C",
"2. c #726665",
"3. c #6B746E",
"4. c #75716E",
"5. c #7B726E",
"6. c #6A6C73",
"7. c #656772",
"8. c #756D76",
"9. c #697578",
"0. c #757473",
"q. c #7B7472",
"w. c #737A75",
"e. c #7C7976",
"r. c #75757B",
"t. c #757A7D",
"y. c #7C7A7A",
"u. c #79767C",
"i. c #914558",
"p. c #837C7A",
"a. c #867975",
"s. c #927A75",
"d. c #856C68",
"f. c #7A817B",
"g. c #84817D",
"h. c #6E7C83",
"j. c #797D83",
"k. c #7A858B",
"l. c #798687",
"z. c #7C8D92",
"x. c #7E9591",
"c. c #86888A",
"v. c #95928E",
"b. c #8B8D94",
"n. c #828B93",
"m. c #8C9494",
"M. c #88969A",
"N. c #95989A",
"B. c #948D87",
"V. c #A5938C",
"C. c #90A29A",
"Z. c #A5A19E",
"A. c #B7A99E",
"S. c #8C99A1",
"D. c #969BA4",
"F. c #A09DA4",
"G. c #9CA3A5",
"H. c #9AA5AC",
"J. c #97A6AA",
"K. c #9CACB3",
"L. c #9DA7B1",
"P. c #9FB3BB",
"I. c #A3AAAF",
"U. c #A8A7A8",
"Y. c #B5A9A7",
"T. c #B7B1AD",
"R. c #A2ACB5",
"E. c #A7ADB5",
"W. c #A4B3BB",
"Q. c #ACB4BB",
"!. c #ACBABB",
"~. c #AAB3B5",
"^. c #B2B5BB",
"/. c #B2BBBE",
"(. c #BAB8B7",
"). c #ADB3AF",
"_. c #C5BDBA",
"`. c #D2BDBA",
"'. c #C2C2BE",
"]. c #CAC5BE",
"[. c #DDC4BF",
"{. c #ABBBC2",
"}. c #ACBFC8",
"|. c #ABB7C3",
" X c #B3BDC4",
".X c #B8BDC6",
"XX c #C0BFC4",
"oX c #ADC1C9",
"OX c #ACC3C5",
"+X c #B5C3C6",
"@X c #BBC2C4",
"#X c #B3C3CB",
"$X c #BAC4CB",
"%X c #B3C9CE",
"&X c #B8CACC",
"*X c #BBCBD3",
"=X c #B5C5D0",
"-X c #BBD1D0",
";X c #C3C4C3",
":X c #CAC9C5",
">X c #CBCCCA",
",X c #C5C8C9",
"<X c #D3CDC9",
"1X c #D8D3CD",
"2X c #C3CDD3",
"3X c #C7CDD6",
"4X c #C7D3D8",
"5X c #D7D6D6",
"6X c #C9D2D0",
"7X c #E3DADB",
"8X c #F4DCD2",
"9X c #E6E3DD",
"0X c #F2E6DA",
"qX c #E7DEE0",
"wX c #D8E5E6",
"eX c #D3EBE5",
"rX c #E4E4E5",
"tX c #ECEBEC",
"yX c #E7E6E8",
"uX c #F4EDEB",
"iX c #FDF3EC",
"pX c #F8F4EC",
"aX c #EBEEF2",
"sX c #F4F4F4",
"dX c #FDF6F3",
"fX c #FDFBF5",
"gX c #FEFDFA",
"hX c #FFFFFD",
"jX c #FFFEFC",
"kX c #FFFEFF",
"lX c #FEFFFF",
"zX c white",
"xX c #FEFEFE",
"cX c #FDFDFE",
"vX c #FEFEFE",
"bX c #F5FDF8",
"nX c #D0E2E1",
/* pixels */
"jXjXjXjXjXcXjXcXjXjXjXjXjXjXjXjXjXjXjXjXjXjXjXjXjXjXjXjXjXjXjXjXjXjXjXjXjXjXjXjXjXjXjXjXjXjXjXjXjXjX",
"jXjXcXjXjXjXjXcXcXjXjXjXjXjXjXjXjXjXjXjXjXjXjXjXjXjXjXjXjXjXjXjXjXjXjXjXjXjXjXjXjXjXjXjXjXjXjXjXjXjX",
"jXjXcXjXjXjXjXjXjXjXjXjXjXjXjXjXjXjXjXjXjXjXjXjXjXjXjXjXjXjXjXjXjXjXjXjXjXjXjXjXjXjXjXjXjXjXjXjXjXjX",
"cXjXjXjXjXjXjXjXjXjXjXjXjXjXjXjXjXjXjXjXjXjXjXjXjXjXjXjXjXjXjXjXjXjXjXjXjXjXjXjXjXjXjXjXjXjXjXjXjXjX",
"jXjXjXjXjXjXjXjXjXjXjXjXjXjXjXjXjXjXjXjXjXjXjXjXjXjXjXgXgXgXjXjXgXjXjXjXjXjXjXjXjXjXjXjXjXjXjXjXjXjX",
"cXcXjXjXjXjXjXjXjXjXjXjXjXjXjXjXjXjXjXjXjXjXjXjXjXjXjXjXjXjXjXjXjXjXjXgXjXjXjXjXjXjXjXjXjXjXjXjXjXjX",
"jXjXjXjXjXjXfXgXgXgXgXjXgXgXjXjXjXjXjXgXgXgXgXgXgXgXgXgXjXgXjXjXgXgXjXjXjXgXjXjXjXjXcXjXjXjXjXjXjXjX",
"` r @ = Y q.e.q.q.q.q.q.0.0.0.0.0.4.<.<.<.4.0.q.e.e.y.q.:.=.e.v.Z.Z.U.v.:.Y F R m M x x b c m F P P ",
"' w x m c ( e.e.5.5.4.<.<.<.<.q.e.4.4.<.-.<.q.q.e.4.e.e.4.-.=. .-.p.g.e.) C P P c m P I E / / / / Q ",
"P & 9 x r P =.4.<.5.g.v.Z.Z.c.e.q.<.<.4.q.e.e.q.4.q.4.<.-.) E Y E ) =.[ ( Q E Y ( ` [ @.*.*.=.=.=.*.",
"*.*   X X > *.B.U.T.'.:X>X:X'.'.).N.c.e.<.<.0.q.e.e.p.4.q.<.=.-.<.,.,.=.[ [ [ =.=.=.,.-.=.=.=.=.=.=.",
"R 7 . k / m.;X,X>X>X;X;X;X'.'.;X:X:X:X'.T.N.c.y.<.<.<.<.q.<.q.-.2.<.,.=.=.,.1.,.,.,.<.,.2.=.=.=.,.,.",
"b O T 5X5X2X!.+X@X$X,X,X,X;X;X>X;X;X;X:X>X<X<X:X(.Z.v.e.5.,.=.<.q.<.<.2.,.<.=...2.,.<.<.<.<.1.5.1.1.",
"= 3 R.aX2X4X2X&X+X{.!./.$X,X;X@X;X;X:X>X>X>X:X;X<X<X1X:XT.v.5.<.( ( <.=.=.<...1.<.<.<.<.<.1.5.q.5.1.",
"7 l *X*X#X#X*X*X*X*X#X X!.!./.@X:X:X:X;X'.'.:X>X<X1X_.(.B.5.=.a y ( p.a.1.q.q.a.5.q.5.5.5.5.5.5.e.e.",
"6 O.4X&X*X%XoXoXoX%X#X&X&X+X/./.^.^./.@X;X;X:X:XU. . .c 2 B.v.,.Z._.<X1XY.1.5.e.5.5.5.4.4.5.5.q.q.q.",
"! M.3X#X#XoXoX}.oX}.}.oX}.|.}.#X X@X@X/..X~.I.I.0.x a ( p.T._.5X5X7X7XqXpX(. .4.<.4.4.w.w.-.,.=.[ / ",
"~ {.4X*X2X#X{.}.|.}.oX}.|.=X|.=X#X{. X+X+X+X@X@X(.U.(.1X1X7X7X7XyXqXyX7XyXsX(.<.e.4.-.3.f.l.0.<.:.` ",
"&.#X%X#X#X#X%X#X}.{.|.Q.|..X2X.X#X#X*X2X#X}. X X2XyXaXtXrXyXyXrX5X7XqXyXyXdXuXT.1.q.c.N.-XeX6XN.t.l.",
"9.-X2X$X&X+XR.K.&X{. X+XQ. X|. X{.oX}.#X*X=X#X{. XnXrXyXaXsXaXyXyXyX5XyXuXtXcXjXT.y.N.eXnXC.H < o o ",
"k.4X/.D.r.m.b.b.U.,XG.W.{.%X%X%X}.{.{.Q.oX}.=X{.#X*X4XaXaXyXaXtXrXyXyXtXjXsX;Xp.c *.@X4X&X^ o o X   ",
"M.4XQ.t.N.m.c.+.r.c.b.N.!.{.OXoX*X+X&X&X XW.}.R.}.2X3XwXsXtXsXtXjXcXsX;Xj.P t k e f !.eXnX-Xx.^ ,   ",
"l.!.+X/./.@X^.^.N.6.r.b.E.G..X$X;X;XI.~. X2X+XR. X^.4X5XyXgXgXdX:Xc.P & $ 3 e G S o.H l.x.M.J.!.K.l.",
"l H J.~.+Xn.k.M.M.I.,XD.6.6.8.c.F.^.j.r.D.,X/.Q.M.3 ! c.XXsXU.C = O b +./ f 6 S ! %.%.O.9.^ H ^ 9.M.",
"b ! D.n.k.n.z.k.z.n.H.D.D.Q.~.b.u.:.6.j.b.~./. X6.. .   x ;XY   3 J 9.9.6.9.G l D z l l e e b b S S ",
"R ;.^.E.D.n.l.h.h.M.S.h.k.z.M.^..X^.U.c.D..XQ.$X;.. + o 4 j.(.$ n O.h.9.l T ~ n ! S d b w & b r k l ",
"O.;.W.L.W.K.K.L.M.h.7.9.S.k.h.9.n.D. X.X^. X^.$XO.. 3 ! ! ' XX6.6 +.6.+.3 3 t e n T R P F w h w e e ",
"6 O.$X#X{.|.L.K.W.P.H.S.K.R.L.D.n.D.Q.I.Q./.!.+XK . g ~ ~ ~ t.3X3 / D t 4 h F f k n m I j 4 c h k e ",
"d ^ &XR.{.%X4X%XP.K.P.D.D.E.I.Q.|.R.H.E.G.~.H.2X7.+ 6 S K D e Q.b.# O 3 h c N N x i 1 : 5 5 { { 9 b ",
"z S J.H.l.8 H z.W.}.W.W.H.H.H.D.L.R.!.H.G.H 3.N.E.D.;.G d d d O.3XG b f w 4 ; j ; 1 ] s.E s.`.iX) X ",
"J z %.M.z . # + K H.R.K.{.{.oXW.H.S.l.w.w.V | x k @X3X^.;.# * 9 @XN.r $ : : 5 : ] <XdXiX} [.dXpX9Xa ",
"H H S ! G d D S . o.H.S.n.M.J.W.+X~.w.U s Z | 3.f.@XG.b.r.o o = I.4Xc.=.y N E d.V.s.V.8XV.B.gXpXgXT.",
"J J T G G l ;.k.g 6 k.h.M.k.k.9.$.w.w.W u u | v.).G.c.l.t.$.>.G.Q.4XcXcX<X(.7XiXiX0XA.s.X.d.dXdXdXpX",
"^ T J J J z o.h.G & ! >.l.n.3.^ 9 % 1 s V s W f.G.m.l.n.n.m.).@X/.^.4XyXjXgXfXgXiXiXfXiXV.,.dXiXuX].",
"$.$.^ L L 8 L %.S d + * 3 J ^ T e - > v V s B | w.m.m.I.@Xm.| _ 3.G.$X5X^.6X9XtXpX9X1XfXgX_.].Y.p.m ",
"#.#.*.^ L J L ~ d 3 .       # , > % 0 u 2 2 u V | w.N.b.:._ v i >.).@X@Xu.P :.'.gXdX9X].T.].<.N * X ",
"i.i.#.( _ O.^ J D d 6 = # o X X X % i V V u 2 i U :.m.f.| V % 0 U G.>X5Xm.` f.;XgXfX(.-.) q % % 3 9 ",
"i.i.} { +._ o.O.~ o.~ G n r t 9 1 q x v V s 2 q v W W Y B u q u B 0 9 P b ' *.0.0.Q a 1 $ % 1 w w h ",
"} d.2.) _ $.;.+.+.` o.~ ! n O > i q q 1 > 2 u v v a u B v u C Q Z a q $ O . X * = X * q 9 i Y c ; C ",
": y 1 C *.*.@.7.@.@.$.$._ H p > > = 0 a 2 > 2 a a v s s v Z Z Q Y C q $ & O O & $ t h w m M I a I I ",
": - y { 1.8.8.8.8.6.7.$.$._ / U M * > v a % - > 2 q q q s Z Q Q ) Y 9 = $ O & & t r w * $ = w M I I ",
"Y.] A 2.a.q.8.r.u.t.r.6.$._ *. .C x a M i 0 q q 2 % % 1 q s v Z Y U C *   X X & & @ X $ r m P P I I ",
"a.( ( =.=.e.y.r.r.t.u.r.0.0.y.0.*.Y r 1 t x x 0 0 a q % 1 C Y C v M m =   X   X & 9 r M m m m P I I ",
"fXfXgXjXjXjXjXjXjXcXjXjXjXjXjXfXgXgXjXjXgXjXjXgXgXgXgXgXgXgXgXgXgXgXjXjXjXjXjXjXjXjXjXjXjXjXjXjXjXjX",
"jXjXgXcXcXcXbXjXjXjXjXjXjXjXjXjXjXgXjXjXjXjXjXjXgXgXgXgXgXgXgXfXgXjXgXjXjXcXjXjXjXjXjXjXjXjXjXjXjXjX",
"cXcXjXcXbXcXjXjXjXjXjXjXcXjXjXjXgXgXjXjXjXjXjXjXjXjXgXjXjXjXjXjXjXjXjXjXjXjXjXjXjXjXjXjXjXjXjXjXjXjX",
"cXcXjXcXcXcXgXgXgXgXjXcXcXjXjXcXjXjXjXjXjXjXjXjXjXjXjXjXjXjXjXjXjXjXjXjXjXjXjXjXjXgXgXcXgXjXjXjXjXjX",
"cXjXjXgXcXjXfXgXjXgXjXcXcXjXjXjXjXjXjXjXjXjXjXjXjXjXjXjXjXjXjXjXjXjXjXjXjXjXjXjXcXgXjXjXjXjXjXjXjXjX",
"jXjXjXjXjXjXjXjXjXjXjXjXjXjXjXjXjXjXjXjXjXjXjXjXjXjXjXjXjXjXjXjXjXjXjXjXjXjXjXjXjXjXjXjXjXjXjXjXjXjX",
"jXjXjXjXjXjXjXjXjXjXjXjXjXjXjXjXjXjXjXjXjXjXjXjXjXjXjXjXjXjXjXjXjXjXjXjXjXjXjXjXjXjXjXjXjXjXjXjXjXjX"
};
