/* XPM */
static char *out[] = {
/* columns rows colors chars-per-pixel */
"50 50 63 1 ",
"  c black",
". c #010101",
"X c #020202",
"o c gray1",
"O c #040404",
"+ c #060606",
"@ c gray3",
"# c gray4",
"$ c #0B0B0B",
"% c #0C0C0C",
"& c gray6",
"* c gray12",
"= c #252525",
"- c gray16",
"; c #313131",
": c #373737",
"> c #3F3F3F",
", c gray25",
"< c #414141",
"1 c gray28",
"2 c #484848",
"3 c #494949",
"4 c gray31",
"5 c #505050",
"6 c gray32",
"7 c #555555",
"8 c gray42",
"9 c gray44",
"0 c gray55",
"q c gray56",
"w c gray57",
"e c #929292",
"r c gray58",
"t c #989898",
"y c gray61",
"u c #9D9D9D",
"i c gray63",
"p c #B2B2B2",
"a c gray73",
"s c #BBBBBB",
"d c #BCBCBC",
"f c gray75",
"g c #C3C3C3",
"h c gray77",
"j c #CBCBCB",
"k c #D0D0D0",
"l c #D2D2D2",
"z c #DADADA",
"x c gray88",
"c c #E7E7E7",
"v c gray91",
"b c #E9E9E9",
"n c gray92",
"m c #EFEFEF",
"M c gray96",
"N c #F8F8F8",
"B c #F9F9F9",
"V c gray98",
"C c #FBFBFB",
"Z c gray99",
"A c #FDFDFD",
"S c #FEFEFE",
"D c white",
/* pixels */
"DDDDDDDDDDDDDDDDDDDDDDDDDDDDDDDDDDDDDDDDDDDDDDDDDD",
"DDDDDDDDDDDDDDDDDDDDDDDDDDDDDDDDDDDDDDDDDDDDDDDDDD",
"DDDDDDDDDDDDDDDDDDDDDDDDDDDDDDDDDDDDDDDDDDDDDDDDDD",
"DDDDDDDDDDDDDDDDDDDDDDDDDDDDDDDDDDDDDDDDDDDDDDDDDD",
"DDDDDDDDDDDDDDDDDDDDDDDDDDDDDDDDDDDDDDDDDDDDDDDDDD",
"DDDDDDDDDDDDDDDDDDDDDDDDDDDDDDDDDDDDDDDDDDDDDDDDDD",
"DDDDDDDDDDDDDDDDDDDDDDDDDDDDDDDDDDDDDDDDDDDDDDDDDD",
"DDDDDDDDDDDDDDDDDDDDDDDDDDDDDDDDDDDDDDDDDDDDDDDDDD",
"DDDDDDDDDDDDDDDDDDDDDDDDDDDDDDDDDDDDDDDDDDDDDDDDDD",
"DDDDDDDDDDDDDDlyuuuuuuuuuuuuuuuuuuivDDDDDDDDDDDDDD",
"DDDDDDDDDDDDDD0                   %hDDDDDDDDDDDDDD",
"DDDDDDDDDDDDDD0                   $hDDDDDDDDDDDDDD",
"DDDDDDDDDDDDDD0                   $hDDDDDDDDDDDDDD",
"DDDDDDDDDDDDDD0                   $gDDDDDDDDDDDDDD",
"DDDDDDDDDDDDDD0    X;<,,,,,,,,,,,>3lDDDDDDDDDDDDDD",
"DDDDDDDDDDDDDD0    $dNMMMMMMMMMMMMMZDDDDDDDDDDDDDD",
"DDDDDDDDDDDDDD0    $gDDDDDDDDDDDDDDDDDDDDDDDDDDDDD",
"DDDDDDDDDDDDDD0    $hDDDDDDDDDDDDDDDDDDDDDDDDDDDDD",
"DDDDDDDDDDDDDD0    $hDDDDDDDDDDDDDDDDDDDDDDDDDDDDD",
"DDDDDDDDDDDDDD0    $hDDDDDDDDDDDDDDDDDDDDDDDDDDDDD",
"DDDDDDDDDDDDDD0    %hDDDDDDDDDDDDDDDDDDDDDDDDDDDDD",
"DDDDDDDDDDDDDD0    +9reeeeeeeeeewtbDDDDDDDDDDDDDDD",
"DDDDDDDDDDDDDD0                  &jDDDDDDDDDDDDDDD",
"DDDDDDDDDDDDDD0                  &jDDDDDDDDDDDDDDD",
"DDDDDDDDDDDDDD0                  &jDDDDDDDDDDDDDDD",
"DDDDDDDDDDDDDD0                  &jDDDDDDDDDDDDDDD",
"DDDDDDDDDDDDDD0    o:3222222222216zDDDDDDDDDDDDDDD",
"DDDDDDDDDDDDDD0    $fZNNNNNNNNNNNBADDDDDDDDDDDDDDD",
"DDDDDDDDDDDDDD0    $gDDDDDDDDDDDDDDDDDDDDDDDDDDDDD",
"DDDDDDDDDDDDDD0    $gDDDDDDDDDDDDDDDDDDDDDDDDDDDDD",
"DDDDDDDDDDDDDD0    $hDDDDDDDDDDDDDDDDDDDDDDDDDDDDD",
"DDDDDDDDDDDDDD0    $hDDDDDDDDDDDDDDDDDDDDDDDDDDDDD",
"DDDDDDDDDDDDDD0    $hDDDDDDDDDDDDDDDDDDDDDDDDDDDDD",
"DDDDDDDDDDDDDD0    %hDDDDDDDDDDDDDDDDDDDDDDDDDDDDD",
"DDDDDDDDDDDDDD0    #pnvvvvvvvvvvvvcmSDDDDDDDDDDDDD",
"DDDDDDDDDDDDDD0    .*-------------=8CDDDDDDDDDDDDD",
"DDDDDDDDDDDDDD0                    4VDDDDDDDDDDDDD",
"DDDDDDDDDDDDDD0                    5CDDDDDDDDDDDDD",
"DDDDDDDDDDDDDD0                    4CDDDDDDDDDDDDD",
"DDDDDDDDDDDDDDq+@@@@@@@@@@@@@@@@@@O7CDDDDDDDDDDDDD",
"DDDDDDDDDDDDDDxsssssssssssssssssssakADDDDDDDDDDDDD",
"DDDDDDDDDDDDDDDDDDDDDDDDDDDDDDDDDDDDDDDDDDDDDDDDDD",
"DDDDDDDDDDDDDDDDDDDDDDDDDDDDDDDDDDDDDDDDDDDDDDDDDD",
"DDDDDDDDDDDDDDDDDDDDDDDDDDDDDDDDDDDDDDDDDDDDDDDDDD",
"DDDDDDDDDDDDDDDDDDDDDDDDDDDDDDDDDDDDDDDDDDDDDDDDDD",
"DDDDDDDDDDDDDDDDDDDDDDDDDDDDDDDDDDDDDDDDDDDDDDDDDD",
"DDDDDDDDDDDDDDDDDDDDDDDDDDDDDDDDDDDDDDDDDDDDDDDDDD",
"DDDDDDDDDDDDDDDDDDDDDDDDDDDDDDDDDDDDDDDDDDDDDDDDDD",
"DDDDDDDDDDDDDDDDDDDDDDDDDDDDDDDDDDDDDDDDDDDDDDDDDD",
"DDDDDDDDDDDDDDDDDDDDDDDDDDDDDDDDDDDDDDDDDDDDDDDDDD"
};
