/* XPM */
static char *out[] = {
/* columns rows colors chars-per-pixel */
"50 50 143 2 ",
"   c black",
".  c #010101",
"X  c #020202",
"o  c gray1",
"O  c #040404",
"+  c gray2",
"@  c #060606",
"#  c #070707",
"$  c gray3",
"%  c #090909",
"&  c gray4",
"*  c #0B0B0B",
"=  c #0C0C0C",
"-  c gray5",
";  c #0E0E0E",
":  c gray6",
">  c #101010",
",  c #111111",
"<  c gray7",
"1  c gray8",
"2  c #151515",
"3  c #161616",
"4  c gray9",
"5  c #181818",
"6  c #191919",
"7  c #1B1B1B",
"8  c gray11",
"9  c #1E1E1E",
"0  c gray12",
"q  c gray13",
"w  c #222222",
"e  c #232323",
"r  c gray14",
"t  c #252525",
"y  c #272727",
"u  c #282828",
"i  c gray16",
"p  c #2A2A2A",
"a  c gray17",
"s  c #2D2D2D",
"d  c gray19",
"f  c #313131",
"g  c gray20",
"h  c #353535",
"j  c gray22",
"k  c #3A3A3A",
"l  c gray23",
"z  c #3C3C3C",
"x  c #444444",
"c  c gray29",
"v  c #4C4C4C",
"b  c #4E4E4E",
"n  c #505050",
"m  c gray32",
"M  c #535353",
"N  c #565656",
"B  c gray34",
"V  c gray36",
"C  c #5F5F5F",
"Z  c gray38",
"A  c gray39",
"S  c gray40",
"D  c #676767",
"F  c #686868",
"G  c DimGray",
"H  c #6A6A6A",
"J  c #6D6D6D",
"K  c #717171",
"L  c #727272",
"P  c gray45",
"I  c #747474",
"U  c gray49",
"Y  c #808080",
"T  c gray51",
"R  c #888888",
"E  c #898989",
"W  c gray55",
"Q  c gray56",
"!  c #909090",
"~  c gray58",
"^  c gray59",
"/  c #989898",
"(  c #9F9F9F",
")  c #A2A2A2",
"_  c gray64",
"`  c #A9A9A9",
"'  c #ACACAC",
"]  c #AEAEAE",
"[  c #B1B1B1",
"{  c #B4B4B4",
"}  c gray71",
"|  c #B6B6B6",
" . c #B7B7B7",
".. c #B9B9B9",
"X. c gray73",
"o. c #BCBCBC",
"O. c gray74",
"+. c gray",
"@. c gray75",
"#. c #C0C0C0",
"$. c #C1C1C1",
"%. c gray76",
"&. c #C3C3C3",
"*. c #C6C6C6",
"=. c gray78",
"-. c #C8C8C8",
";. c gray79",
":. c #CACACA",
">. c #CBCBCB",
",. c #CDCDCD",
"<. c gray81",
"1. c #D0D0D0",
"2. c gray84",
"3. c gainsboro",
"4. c #DDDDDD",
"5. c gray87",
"6. c #DFDFDF",
"7. c #E1E1E1",
"8. c #E4E4E4",
"9. c #E7E7E7",
"0. c #E9E9E9",
"q. c #EAEAEA",
"w. c gray92",
"e. c #ECECEC",
"r. c gray93",
"t. c #EEEEEE",
"y. c #EFEFEF",
"u. c gray94",
"i. c #F1F1F1",
"p. c gray95",
"a. c #F3F3F3",
"s. c #F4F4F4",
"d. c gray96",
"f. c #F6F6F6",
"g. c gray97",
"h. c #F8F8F8",
"j. c #F9F9F9",
"k. c gray98",
"l. c #FBFBFB",
"z. c gray99",
"x. c #FDFDFD",
"c. c #FEFEFE",
"v. c white",
/* pixels */
"v.v.v.v.v.v.v.v.v.v.v.v.v.v.v.v.v.v.v.v.v.v.v.v.v.v.v.v.v.v.v.v.v.v.v.v.v.v.v.v.v.v.v.v.v.v.v.v.v.v.",
"v.v.v.v.v.v.v.v.v.v.v.v.v.v.v.v.v.v.v.v.v.v.v.v.v.v.v.v.v.v.v.v.v.v.v.v.v.v.v.v.v.v.v.v.v.v.v.v.v.v.",
"v.v.v.v.v.v.v.v.v.v.v.v.v.v.v.v.v.v.v.v.v.v.v.v.v.v.v.v.v.v.v.v.v.v.v.v.v.v.v.v.v.v.v.v.v.v.v.v.v.v.",
"v.v.v.v.v.v.v.v.v.v.v.v.v.v.v.v.v.v.v.v.v.v.v.v.v.v.v.v.v.v.v.v.v.v.v.v.v.v.v.v.v.v.v.v.v.v.v.v.v.v.",
"v.v.v.v.v.v.v.v.v.v.v.v.v.v.v.v.v.v.v.v.v.v.v.v.v.v.v.v.v.v.v.v.v.v.v.v.v.v.v.v.v.v.v.v.v.v.v.v.v.v.",
"v.v.v.v.v.v.v.v.v.v.v.v.v.v.v.v.v.v.v.v.v.v.v.v.v.v.v.v.v.v.v.v.c.c.c.c.c.c.c.c.v.v.v.v.v.v.v.v.v.v.",
"v.v.v.v.v.v.v.v.v.v.v.v.v.v.v.v.v.v.v.v.v.v.v.v.v.v.v.v.v.v.v.v.c.c.c.c.c.c.c.c.v.v.v.v.v.v.v.v.v.v.",
"v.v.v.v.v.v.v.v.v.v.v.v.v.v.v.v.v.v.v.v.v.v.v.v.v.v.v.v.v.v.v.v.c.c.c.c.c.c.c.c.v.v.v.v.v.v.v.v.v.v.",
"v.f.v.v.v.k.v.s.c.z.p.k.v.l.h.g.v.g.v.j.z.k.v.v.v.c.l.g.g.l.v.v.j.v.v.l.v.v.k.x.v.v.v.h.v.v.g.v.v.v.",
"v.v.l.s.v.v.*.d 4 t j t e 5 s r 8 0 9 q i t a q 0 0 w y p i u u c B J ( 3.j.x.v.h.v.d.v.y.v.v.v.v.v.",
"v.v.c.z.v.v.o.  O   .       %     :   X o   .   @           X #   O = & : h ! t.v.d.v.v.v.d.v.v.v.v.",
"j.v.v.v.k.j.<.- # + o # X     $   O       O o &     o $ # .   . = O         @ 3 T v.x.h.v.v.g.v.v.v.",
"x.v.c.k.c.v.>.  . X O   & #   ; o   %   o &   . $ # + o     X #     o O o @ & % : v d.i.c.v.q.v.v.v.",
"v.v.j.l.v.l.7.D G N n           *   O       X o   X X . o # +   O X O               z v.f.j.v.c.v.v.",
"v.z.x.v.v.p.v.l.v.h.l.E o   = + o   X X # + K W Q / / W U A f X       @     % @   1   V v.v.x.k.v.v.",
"z.v.v.d.v.v.c.l.c.a.v.1.  @ X     X . .     :.v.x.v.x.h.v.v.r.%.d *         X   %   X = >.v.h.v.v.v.",
"v.v.v.v.v.v.v.v.v.c.v.2.    .   . .     . . | v.d.l.v.v.c.c.v.v.h.g   %       % .   O   J v.w.v.v.v.",
"v.v.v.v.v.v.v.v.v.c.v.2.    .         O % $ ..v.v.v.v.c.z.x.l.j.c.#.1   @ :         % % q f.v.v.v.v.",
"v.v.v.v.v.v.v.v.v.c.v.2.    .   . .         { l.x.v.v.c.v.v.v.l.v.y.3 ; X   $       .   > 0.v.j.v.v.",
"v.v.v.v.v.v.v.v.v.c.v.2.    .           . @ @.v.j.c.v.c.v.v.v.k.i.k.4   +   X .   .     9 g.k.l.v.v.",
"v.v.v.v.v.v.v.v.v.c.v.2.    .     X @ o .   { l.k.v.c.h.j.c.c.h.v.' $   + o           > t v.z.v.v.v.",
"v.v.v.v.v.v.v.v.v.c.v.2.    .     O X     o ..c.g.z.z.h.x.v.v.x.6.i   > X   . X .   #   I v.c.v.v.v.",
"v.v.v.v.v.v.v.v.v.c.v.2.    .           $ < $.x.z.v.v.c.v.z.8.;.h - O   + O   o X . o > 4.x.k.c.v.v.",
"v.v.v.v.v.v.v.v.v.c.v.2.    .   . o     X   Y ) ) _ ( ~ R H f         X .   +   o     E v.v.l.v.v.v.",
"v.v.v.v.v.v.v.v.v.c.v.2.    .   .     @   #   o                         #     . X   P g.v.z.v.h.v.v.",
"v.v.v.v.v.v.v.v.v.c.v.2.    .       . &   &   # o o o o o X X . . .           ; $ ^ z.v.h.x.v.v.v.v.",
"v.v.v.v.v.v.v.v.v.c.v.2.    .   $ .         X . o o o o o o O O   O o     O 7 l -.v.v.i.v.v.t.v.v.v.",
"v.v.v.v.v.v.v.v.v.c.v.2.    .         % % X ,                 .       @ d L %.v.v.v.k.g.v.v.v.k.v.v.",
"v.v.v.v.v.v.v.v.v.c.v.2.    .   X . X .     k x b b b b b n m M J W } 6.x.v.c.v.i.g.v.v.f.v.v.h.v.v.",
"v.v.v.v.v.v.v.v.v.c.v.2.    .       .     2 +.v.c.c.c.c.v.v.v.v.v.v.j.j.v.v.c.v.v.x.d.v.v.s.a.v.v.v.",
"v.v.v.v.v.v.v.v.v.c.v.2.    .       O .      .v.k.l.z.x.x.x.x.x.c.v.v.x.v.v.k.x.u.v.v.x.v.v.v.v.v.v.",
"v.v.v.v.v.v.v.v.v.c.v.2.    .   o     . +   X.v.x.c.v.v.v.v.v.v.f.v.v.v.v.v.v.v.v.x.v.v.h.v.v.g.v.v.",
"v.z.z.v.x.v.j.v.v.v.v.=.=   X # o   * . +   O.c.j.v.v.h.x.c.v.v.v.v.v.v.v.v.v.v.v.v.v.v.v.v.v.v.v.v.",
"v.v.z.c.f.v.c.k.v.l.v.5.-         o .   + o :.v.z.z.z.v.v.v.k.v.v.v.v.v.v.v.v.v.v.v.v.v.v.v.v.v.v.v.",
"k.v.v.v.k.v.v.v.x.g.k.1.    + +   %   X -   { d.z.x.v.v.v.v.h.v.v.v.v.v.v.v.v.v.v.v.v.v.v.v.v.v.v.v.",
"l.c.c.v.v.d.l.v.l.v.v.O.@ O +   X #     &   ' v.k.v.v.h.i.x.j.v.v.v.v.v.v.v.v.v.v.v.v.v.v.v.v.v.v.v.",
"v.v.s.g.l.v.v.g.g.d.:.C     o X O       +   Z &.p.k.e.v.v.v.v.x.v.v.v.v.v.v.v.v.v.v.v.v.v.v.v.v.v.v.",
"d.v.v.v.v.f.| e 8 7 6   O X         * . X     5 w r i ] d.z.k.z.v.v.v.v.v.v.v.v.v.v.v.v.v.v.v.v.v.v.",
"v.v.v.k.c.v.,.= #       + X       o X     # o         ] v.v.v.v.v.v.v.v.v.v.v.v.v.v.v.v.v.v.v.v.v.v.",
"v.k.v.v.l.v.:.X O . * %   @ + # o $   % . o - X O >   [ v.p.v.j.v.v.v.v.v.v.v.v.v.v.v.v.v.v.v.v.v.v.",
"v.v.j.x.v.v.X.                                      + ` v.k.v.l.v.v.v.v.v.v.v.v.v.v.v.v.v.v.v.v.v.v.",
"l.v.c.v.k.v.8.I S S S S S S S S S S S S S S S S F S S >.z.l.v.v.v.v.v.v.v.v.v.v.v.v.v.v.v.v.v.v.v.v.",
"z.v.x.v.l.j.v.9.v.v.v.v.v.v.v.v.v.v.v.v.v.v.v.v.v.v.s.v.v.c.z.k.v.v.v.v.v.v.v.v.v.v.v.v.v.v.v.v.v.v.",
"v.c.g.v.v.j.v.v.l.l.l.l.l.l.l.l.l.l.l.l.l.l.l.l.a.j.v.x.j.v.v.v.v.v.v.v.v.v.v.v.v.v.v.v.v.v.v.v.v.v.",
"v.v.h.v.v.l.x.x.v.v.v.v.v.v.v.v.v.v.v.v.v.v.v.v.v.v.v.v.v.v.z.v.v.v.v.v.v.v.v.v.v.v.v.v.v.v.v.v.v.v.",
"v.v.v.v.c.x.x.l.c.c.c.c.c.c.c.c.c.c.c.c.c.c.c.c.x.d.x.g.v.v.v.v.v.v.v.v.v.v.v.v.v.v.v.v.v.v.v.v.v.v.",
"v.x.v.v.k.v.v.v.v.v.v.v.v.v.v.v.v.v.v.v.v.v.v.v.v.v.v.j.v.z.v.c.v.v.v.v.v.v.v.v.v.v.v.v.v.v.v.v.v.v.",
"v.j.v.v.l.v.v.z.v.v.v.v.v.v.v.v.v.v.v.v.v.v.v.v.z.v.v.j.v.h.v.l.v.v.v.v.v.v.v.v.v.v.v.v.v.v.v.v.v.v.",
"v.v.v.v.v.v.v.v.v.v.v.v.v.v.v.v.v.v.v.v.v.v.v.v.v.v.v.v.v.v.v.v.v.v.v.j.f.h.j.j.h.k.j.h.k.x.x.j.d.v.",
"v.v.v.v.v.v.v.v.v.v.v.v.v.v.v.v.v.v.v.v.v.v.v.v.v.v.v.v.v.v.v.v.c.v.z.f.p.a.s.p.u.p.i.u.p.d.d.i.d.v."
};
