/* XPM */
static char *_31709be3c5241f4a44df39d7c369efe988kqOISL946JCWZ[] = {
/* columns rows colors chars-per-pixel */
"50 50 12 1 ",
"  c #030200",
". c #020202",
"X c gray1",
"o c #040301",
"O c #040203",
"+ c #050402",
"@ c #060503",
"# c #050304",
"$ c #040404",
"% c #060405",
"& c #070604",
"* c #060407",
/* pixels */
"########OOOOOOOOOOOO+++++++++++++++++++$++++++++++",
"########OOOOOOOOOOOO++++++++++++++++++++++++++++++",
"########OOOOOOOOOOOO++++++++++++++++++++++++++++++",
"########OOOOOOOOOOOO+++++++++++++++++++++++++$++++",
"########OOOOOOOOOOOO++++++++++++++++++++$++++$++++",
"########OOOOOOOOOOOO++++++++++++++++++++++++$$++++",
"########OOOOOOOOOOOO++++++++++++++++++++++++++++++",
"########OOOOOOOOOOOO++++++++++++O+++++++++++++++++",
"################OOOO++++++O++++OOOOO++++O+++++++++",
"################OOOO++++++O++++OOOOO++++O+++++++++",
"################OOOO++++++O+++++OOOO++++O+++++++++",
"################OOOO++++++O+++++OOOO++++O+++++++++",
"################++++OO+O+OOO++++++++OOOOO+++++++++",
"################++++OO+O+OOO++++++++OOOOO+++++++++",
"################++++OOOOOOOO++++++++OOOOO+++++++++",
"################++++OOOOOOOO++++++++OOOOO+++++++++",
"OOOOOOOO+OOO+++OOOOOOOOO++++++++++++OO   OOOOOO ++",
"+++++++++OOO+++OOOOOOOOOOO++++++++++OOO OOO++OOO++",
"+++++++++OOO+++OOOOOOO+OOOO++++++++++OOOOOO++OOO++",
"+++++++++OOO+++OOOOOO++OOOOO++++++++++OOOO++++OO++",
"+++++++++OOO+++OOOOOO+OOOOOO++++++++++++OO++++OO++",
"+++++++++OOO+++OOOOOOOOOOOOOO+++++++++++O++++++O++",
"+++++++++OOO+++OOOOOOOOOOOOOOO++++++++++O++++++O++",
"+++++++++OOO+++OOOOOOOOO OOOOOOO++++++++++++++++++",
"O+++++++OOOOOOO ++OOOOOOOOOO+OOOOOOO++++++++++++++",
"O+++++++++OOOOOOOOOOO++OOOOOOOOOOOOO++++++++++++++",
"O++++++++++OOOOOOOOOOOOOOOOOOOOOOOOO++++++++++++++",
"O+++++++++++OOOOOOOOOOOOOOOOOOOOOOOO++++++++++++++",
"O+++++++++++OOOOOOOOOOOOOOOOO+OOOOOO++++++++++++++",
"O++++++++++++OOOOOOOOOOOOOO+++OOOOOO++++++++++++++",
"O+++++++++++++OOOOOO+OOOOOOOOOOOOOOO++++++++++++++",
"O+++++++++++++++OO+O+OOOOOOOOOOOOOOO++++++++++++++",
"OOOO+++++++++++OOOOOOOOOOOOOOO+OOOOO++++++++++++++",
"OOOO+++++++++++OOOOOOOOOOO+OOO+OOOOO++++++++++++++",
"OOO++++++++++++OOOOOOOOOOO+OOOOO+OOO++++++++++++OO",
"OO+++++++++++++OO++O++OOOOOOOOOO+OOO++++++++++++++",
"+++++++++++++++OOOOOOOOOOOOOOOOOOOOO++++OO++++++++",
"+++++++++++++++OOOOOOOOOOOOOOOOOOOOO++++OOO+++++++",
"+++++++++++++++OOO+OOOOOOOOOOOO+OOOO++++OOO+++++++",
"+++++++++++++++OOOOOOO++OO+OOOO+OOOO++++OOO+++++++",
"++++++++++++++++OOO+OOOOOOOOOOOOOOOOOOOO++++++++++",
"++++++++++++++++OOO+OOOOOO+OOOOOOOOOOOOO++++++++$$",
"++++++++++++++++OOOOOOOOOOOOOOOOOOOOOOOO+++++++++$",
"++++++++++++++++OOOOOOOOOOOOOOOOOOOOOOOO++++++++++",
"++++++++++++++++OO+OOOOOOOOOOOOO++++++++++++++++++",
"++++++++++++++++OO+O+OOOOOOOOOOO++++++++++++++++++",
"++++++++++++++++OOOOOOOOOO++OOOO++++++++++++++++++",
"++++++++++++++++OOOOOOOOOOO+OOOO++++++++++++++++$$",
"#########OOO###O       $########++++++++++++++++$$",
"#########OOO###O      X$########++++++++++++++++$$"
};
