/* XPM */
static char *out[] = {
/* columns rows colors chars-per-pixel */
"60 60 248 2 ",
"   c #02050C",
".  c #0B0A0B",
"X  c #1C0E0C",
"o  c #161010",
"O  c #261712",
"+  c #3A281D",
"@  c #1C262E",
"#  c #2B2B2C",
"$  c #3B2D25",
"%  c #3C2D27",
"&  c #31332F",
"*  c #3D302A",
"=  c #282E33",
"-  c #2D3234",
";  c #2E3739",
":  c #2D393A",
">  c #333534",
",  c #3A3635",
"<  c #353836",
"1  c #3A3935",
"2  c #343739",
"3  c #36393A",
"4  c #393A39",
"5  c #4E1E06",
"6  c #531E04",
"7  c #551F08",
"8  c #4D240D",
"9  c #552306",
"0  c #54240B",
"q  c #582709",
"w  c #5B2A0D",
"e  c #4C2513",
"r  c #4C2A15",
"t  c #442819",
"y  c #4D2C1B",
"u  c #522512",
"i  c #542C16",
"p  c #5C2E15",
"a  c #542D1B",
"s  c #5A2E1A",
"d  c #4E301F",
"f  c #54311E",
"g  c #5F3318",
"h  c #5C331D",
"j  c #622D14",
"k  c #633215",
"l  c #64351C",
"z  c #68371A",
"x  c #6C3B1E",
"c  c #703F1F",
"v  c #432D24",
"b  c #4B2E22",
"n  c #402F28",
"m  c #532F22",
"M  c #453124",
"N  c #4B3225",
"B  c #45332A",
"V  c #4C352A",
"C  c #4C3828",
"Z  c #4C3A2C",
"A  c #543423",
"S  c #5C3624",
"D  c #543926",
"F  c #5C3A24",
"G  c #54362A",
"H  c #583728",
"J  c #543B2A",
"K  c #5B3C2B",
"L  c #433736",
"P  c #433B35",
"I  c #4C3C33",
"U  c #423A3A",
"Y  c #553E30",
"T  c #5B3B31",
"R  c #633623",
"E  c #643A25",
"W  c #6B3C23",
"Q  c #643D2B",
"!  c #6A3829",
"~  c #723F25",
"^  c #623D30",
"/  c #39443E",
"(  c #71421F",
")  c #56402D",
"_  c #5C422E",
"`  c #4C4234",
"'  c #48433A",
"]  c #4B433A",
"[  c #534234",
"{  c #5C4433",
"}  c #564B3D",
"|  c #594939",
" . c #664027",
".. c #6C4125",
"X. c #64442D",
"o. c #6C432C",
"O. c #66492E",
"+. c #6E492E",
"@. c #734325",
"#. c #7A4426",
"$. c #774A26",
"%. c #73452A",
"&. c #7C462B",
"*. c #734B2B",
"=. c #7B4B2B",
"-. c #77512E",
";. c #7C512D",
":. c #634433",
">. c #6B4533",
",. c #664B37",
"<. c #6C4C34",
"1. c #734633",
"2. c #7E4736",
"3. c #724B32",
"4. c #7B4C33",
"5. c #6C5136",
"6. c #65533B",
"7. c #6D533B",
"8. c #755234",
"9. c #7B5334",
"0. c #7D5934",
"q. c #73543A",
"w. c #7B563A",
"e. c #77593D",
"r. c #7C5B3C",
"t. c #34364A",
"y. c #2E3B52",
"u. c #363655",
"i. c #39474A",
"p. c #304A53",
"a. c #364854",
"s. c #424749",
"d. c #574C46",
"f. c #475756",
"g. c #655843",
"h. c #795A41",
"j. c #675C5D",
"k. c #55645D",
"l. c #546B59",
"z. c #6D6247",
"x. c #766244",
"c. c #7A6444",
"v. c #7F6846",
"b. c #536867",
"n. c #687373",
"m. c #86472D",
"M. c #844B2E",
"N. c #82532E",
"B. c #89562F",
"V. c #995A2F",
"C. c #844D33",
"Z. c #874D36",
"A. c #835533",
"S. c #8B5335",
"D. c #845A35",
"F. c #8B5B34",
"G. c #825739",
"H. c #8B563A",
"J. c #845C3B",
"K. c #8C5B3A",
"L. c #915B36",
"P. c #925C3B",
"I. c #A75524",
"U. c #866039",
"Y. c #8D623B",
"T. c #976436",
"R. c #93633C",
"E. c #94693D",
"W. c #9C6B3D",
"Q. c #9D723F",
"!. c #A46A3A",
"~. c #B46831",
"^. c #C35A1A",
"/. c #C15F22",
"(. c #C96827",
"). c #835B41",
"_. c #975A47",
"`. c #856342",
"'. c #8A6341",
"]. c #8D6944",
"[. c #876B49",
"{. c #936442",
"}. c #996642",
"|. c #946A43",
" X c #9B6C44",
".X c #9F614D",
"XX c #936C49",
"oX c #9B6E4A",
"OX c #88724F",
"+X c #9D7243",
"@X c #957248",
"#X c #9D724B",
"$X c #9F7A4D",
"%X c #9D6750",
"&X c #957C53",
"*X c #9C7851",
"=X c #A16F45",
"-X c #A27444",
";X c #A57946",
":X c #AB7B47",
">X c #A2744B",
",X c #A47A4C",
"<X c #A97D4C",
"1X c #B57A46",
"2X c #B37E49",
"3X c #A56755",
"4X c #A57953",
"5X c #A37C53",
"6X c #AA7D53",
"7X c #AC824D",
"8X c #B2844D",
"9X c #B9864B",
"0X c #B5894F",
"qX c #A58254",
"wX c #AC8453",
"eX c #AE8956",
"rX c #AE8659",
"tX c #B28653",
"yX c #B48B53",
"uX c #B98C52",
"iX c #B1875B",
"pX c #B38C5A",
"aX c #B89256",
"sX c #C39353",
"dX c #587881",
"fX c #3975CB",
"gX c #5C71D3",
"hX c #3A9592",
"jX c #578791",
"kX c #728B87",
"lX c #589EAB",
"zX c #599CB3",
"xX c #7586AD",
"cX c #5DA4AF",
"vX c #5DA9B6",
"bX c #78A9A9",
"nX c #68AAB0",
"mX c #79ACB1",
"MX c #77B0B2",
"NX c #3D8AD3",
"BX c #33A9D9",
"VX c #4B8FD9",
"CX c #6391D2",
"ZX c #54B3CD",
"AX c #62BAC6",
"SX c #47C3DA",
"DX c #58CBDC",
"FX c #829CA9",
/* pixels */
"4 4 4 4 4 4 4 4 1 4 4 4 4 4 4 4 3 4 4 4 3 3 3 ; ; 2 2 ; ; ; ; 2 ; ; ; = : ; < < 4 < 4 4 < 4 4 , 4 4 4 4 4 4 4 4 4 4 4 4 ",
"4 4 4 4 1 4 4 4 4 4 4 4 4 4 4 4 4 4 4 4 3 2 < / l.k.k.k.k.k.k.k.k.k.k.b./ & < : 3 4 4 3 3 3 4 4 4 4 4 4 4 4 4 4 4 4 < 4 ",
"4 4 1 4 4 1 4 4 4 4 < 4 4 4 4 3 4 4 4 - = - c.qXqXqX0X7X7X0XwXeXwXeXwXeXqXx.< = < < 3 < 4 , 4 4 4 3 4 4 4 4 4 4 4 4 1 1 ",
"4 4 1 4 4 4 4 4 4 4 4 4 4 4 4 3 2 - 1 &XqX*XwX0X0X<X7X8X8X8X8X8X8X:X-X7X0XwXqXqXqX' - 2 4 4 4 4 4 4 4 4 4 4 4 4 4 4 4 4 ",
"4 4 4 4 4 4 4 / 4 4 4 4 1 4 < = < ` 7.eXaX7XE.Y.Y.;.9.G.K.,X=XK.J.q.N.J.E.@X:XaXeX6.] > - 4 4 4 4 4 4 4 4 3 4 4 4 4 4 4 ",
"1 4 4 4 4 4 4 < 4 4 4 4 4 < - ' v.eXyX7X;XD.@.S Q E b b A X.K A N M o...W ..;. XeXpXpXx.' - < 4 4 4 4 4 4 4 4 4 4 4 4 4 ",
"4 4 4 4 4 4 4 4 4 4 4 4 4 ; 1 &XpXyX7XY.=.=.4.Q H N * V H M $ _ :.M V J F *.4.&.Y.wXyXyX$X} & 2 4 4 4 4 4 4 4 4 4 4 4 4 ",
"4 4 4 4 4 1 4 4 4 4 4 4 - ] &XeXeX;X;.2.Q X.>.T B B J r.H.Q C >XoXK B M B :.:.>.=.A.}.wXeXqX} - 4 4 4 4 4 4 4 4 4 4 4 4 ",
"4 4 4 4 4 4 4 4 4 4 4 4 = OXaXyX{.Q ~ _.T v v K e.q.{ XX>Xo.C rX>XK :.'.7.n v V ).Z.E G.<XpX&X= ; 4 4 4 4 , 3 4 4 4 4 4 ",
"4 4 4 4 4 4 4 4 4 4 4 ; g.qX0X+X4.! h.T v 5.`.@XiXoX_ [.rX<.J 6X<XX.<.tX4X'.e.C b :.H W K.7XpXz.2 - 4 4 4 < 4 4 4 4 4 4 ",
"4 4 4 4 4 4 4 4 1 3 - d.qXyX7X;.{.>.v M q.4XtXW.F.=.i Y.6X<.D 5X>X..x S.H.-XwX).T % B `.;.Y.tXpXg.2 < 4 4 4 4 4 4 4 4 4 ",
"4 4 4 4 4 4 4 4 4 - ] qXyX7XA.=.#XJ M G.,X{.( k 9 9 8 U.4X*.C >XT.h 0 9 6 z F.,X`.B M @XY.$.+XaXpXg.- 4 4 4 4 4 4 4 < 4 ",
"4 4 4 4 4 4 U 4 4 @ } pX0XU.;.XXG.+ J E.F.@.9 q l O.A A.P.o.b S.S.S 3.%.q 9 w ;.J.O.$ K #XF.;.qXpXz.= 1 / 1 4 4 4 4 4 4 ",
"4 4 4 4 4 4 4 4 2 < x.yX0XN.D.<.N + 3.D.w q 9 ( #XXXA K ~ G $ A S v O.oX#X$.q 0 @.).b + 5.r.N.;XaXv.& < < 4 4 4 4 4 4 4 ",
"4 4 4 4 4 4 4 4 ; x.yXeXU.*.U.C t b h i u G.{.>X6X{.A b H v $ N S v _ }.wXoX_.W i m m b + 6.J.$.,XyXx.< 4 4 4 4 4 4 4 4 ",
"4 4 4 4 4 4 4 4 ; c.0X0XN.+.) % _ K.E h ).4X6X>XK.4.A o.Z.E t 2.A.G E S.K.4X6X>Xo.d 4.C.M M X.$.$XuXv.< 1 4 4 4 4 4 4 4 ",
"3 4 4 4 4 4 4 4 - c.0X0XE.3.Z $ :.P.Q S *.4.%.W ~ W y %.H.R v 2.Z.S A R x ~ %.#.S y Z.S.N v 4.@.Q.uX`.1 1 4 4 4 4 4 4 1 ",
"4 4 4 4 4 4 4 4 2 e.2X:X&.%.Z $ o.H.K r 9 9 9 9 9 0 t 1.P.! y =.S.H 8 5 6 6 5 6 8 b C.S.N M 2.@.W.7Xr.> 4 4 4 4 4 4 4 4 ",
"4 4 4 4 4 4 4 4 2 5.T.F.M.4.Z * >.H.H S z l p z h a + 3.P.Q M {.P.m S x z p l i e b ).P.G V =.m.#.V.q.< 4 4 4 4 4 4 4 4 ",
"4 4 4 4 4 4 4 4 < c.0X X{. X[ $ <. XX.3.#X|.9.|...<.D 3._.X.V *XoXm w.>X=XW G.q.I H }.H.J Z K.=XW.;X`.< 4 4 4 4 4 4 4 4 ",
"4 4 4 t.4 4 4 4 ; c.0X0XuXyX6.$ q.6Xo.E  X#X4.}.p q.) 9.>X+.C 5X4Xm 1.,X#Xz =.J.| ) +XP.J { eXuXuX1X4., 4 3 < 4 4 4 4 4 ",
"4 4 P / 4 1 4 4 2 c.uX+XD.J.I % e.wX! S {.#X9.}.k w.f 9.qX-.C 5X6XS ! ,X=XE =.K. .h >X-XY J D.U.Q.1X4.< 4 4 4 4 4 4 4 4 ",
"4 4 4 4 4 4 4 4 2 r.9XE.o.<.1 * e.wXo.R }.#Xq. Xk 9.f '.rXw.C qXrXR %.>X#XW =.K. .F $X XY I X.$.R.1X4.4 4 4 4 4 4 4 4 / ",
"4 4 4 4 4 4 4 4 - 8.9X;X;.w.' $ e.wX*.H }.#X4.oXg 9.A `.rXr.C qXwXQ ! >XoXW =.K. .F ,X+XY I c.9.+X1X4., 4 4 4 1 4 4 4 < ",
"4 4 4 4 4 4 4 4 > c.9X9X0.U.' % q.wX>.R {.#X9. Xp 0.A U.rXr.J qXwX! ! >X#XW =.K. .F ,X6X[ ` [.9.7X2XG.> 4 4 4 4 4 4 4 4 ",
"4 4 4 P 4 4 4 4 > c.9X2X-.5.' $ e.pXo.H }.#X9. Xp G.H U.rXr.J qXqX! >.,X#XW =.K. .F $X}.J Z U.;.<XuXh.> 4 4 4 4 4 1 4 < ",
"4 4 4 t.4 4 4 4 > c.9XQ.;.o.4 % q.tXo.E }.#X9.}.w *.d '.rX8.J qXwXR *.>X#XW &.H.W h +XD.C Z $.=.:XtXc.> 4 4 4 4 4 4 4 4 ",
"4 U 4 4 4 4 4 / < | F.B.F.0.U * q.tXo.R {.XX4.E.w %.r `.rX<.J qXqXR ! ,X>XW W &.p F +XH.V I D.N.K.E.,.> 4 4 4 4 4 4 4 4 ",
"4 4 4 4 4 4 4 4 : 6.7X$XqXqX} * q.wXo.S P.L.@.M.q ..r '.,X .J qXwXR ! +X{.l z #.p h qXW.Z | qXtX@X@X6.> 4 4 4 4 4 4 4 4 ",
"4 4 4 4 4 4 4 4 > c.yXyX0XqX] $ q.6X..H P.F.j z 9 +.y '.>XW J qX,Xh o.E.=.k W =.i  .qX+XJ [ 7XeXyXaXc.> 4 4 4 4 4 4 4 4 ",
"4 4 4 4 4 4 4 4 > x.0X7XD.*.P * r.6Xo.S S.M.~ &.q *.y `.-X..) qX+XR o.E.=.j @.#.i E <X<X,.B $.D.tXaXc.< 1 4 P 4 4 4 4 4 ",
"' t.4 4 4 4 4 4 > c.0XQ.$.+.I % e.+Xo.A h l s h 8 f y '.>Xo.{ qX-XX.f l h i f h r D #X<X,.Z o.$.W.uXc.< 4 4 4 4 4 P 4 4 ",
"4 4 4 4 4 4 4 4 3 c.yX7X0.+.` * >.L...G F ..S A A H B 7.`.J B [.).{ { O.:.{ { _ T J  XE.K I G.*.;XaXc.> 4 4 4 4 4 4 4 4 ",
"4 4 4 4 4 4 4 4 2 c.yX0X0.q.] * F &.F 3.4X6X4X>X#X*X$ . .     . # d.<.*X#XXX{.XX'.D &.~ T Y ].+.$XaXc.> 4 4 4 4 4 4 4 4 ",
"4 4 4 4 4 4 4 4 > c.0XQ.%.<.' M G ^ m S _. X X X X}.+         o # j.b XX X X X X'.A l W V I D.+.E.:Xc.> 1 4 1 4 4 4 4 4 ",
"4 4 4 1 4 4 4 4 2 c.yX:X;.*.P N 1.3X~ k ;.N.A.A.S.S.+ X X X o X O B y S.D.B.A.A.;.H )._.K Z @.@.B.7Xc.> 4 4 4 4 U 4 4 4 ",
"4 4 4 4 4 4 4 4 > c.0XQ.N.].[ M >.3X! i x x x x z W h E W R s l Q l z ..c c ( W W A _..XT Y ].S. X<Xr.> 4 4 4 4 4 4 / 4 ",
"4 4 4 4 4 4 4 4 > c.0XT.;.[.] M 1..X^ b r r r e e r y @.#.W a @.~ h a y r u a r r N _..XG Y @XU.|.W.8.> 4 4 4 4 4 4 4 4 ",
"4 4 4 4 4 4 4 4 > q.2X;XA.+.I v ^ 3XQ C _ O.,.D :.) $ o.C.Q d 9.o.v ,.7.) K D ) J A {._.J Z q.;.E.0Xr.> 4 4 4 4 1 4 4 4 ",
"4 4 4 4 4 4 4 4 > 5.2X0XD.*.P B T h.H J 5Xc.[.].+.h.C N H N v A A v ,.5X].XX8.e.h.D 2.2.V I 8.A.-XyX`.1 4 4 4 4 4 4 4 4 ",
"4 4 4 4 4 4 4 4 > x.yX8XD.8.} * M C N K 4XJ.XX#Xl S.J :.*.D M 7.8.b 7.5XJ.|.=.@.q.J A G B [ [.;.W.uX`.> 4 4 4 4 4 4 4 4 ",
"4 4 4 4 4 4 4 4 > c.8X8XD.+.I * X.`.Q H #XU.@X#Xl 9.[ `. XO.C qX#XA <.qXJ.|.=.#.$.J 9.G.G [ qX$.W.0Xc.> 4 4 4 4 4 4 4 4 ",
"4 4 4 4 4 4 4 4 > 5.!.T.=. .P % <.$Xo.S #XJ.@X#Xl 9.D '.<Xo.C qX,XA <.qXD.].=.#.*.J E.R.Y Z 9.$.B.L.3.> 4 4 4 4 4 4 4 4 ",
"4 4 3 4 4 4 4 4 < ) $.=.$.o.P % 7.6X..S }.;.XX#Xk 9.H |.qXo.N qX$XF o.6X;.|.&.~ $.A *X}.H Z x ....@.D 1 4 4 4 4 4 4 4 4 ",
"4 4 4 4 4 4 4 4 / e.Q.Q.Q.@X} $ 5.tX8.A R.=.J. Xk *.h XXeX+.D qX5XE E #X( }.=.#...h 5X,X) Y E.W.W.Q.8.1 4 4 4 4 4 4 4 4 ",
"4 4 4 4 4 4 4 4 < v.aXaXyX7X} + 5.pX-.f R.=.K. Xk z i |.eX3.J qX,XE W  Xx E.=.z x h 5XiX{ { ;XyX7X0X[.1 4 4 4 4 4 4 4 4 ",
"4 4 4 4 4 4 4 1 < OXaXaXaXeX} $ 5.wX*.A P.&.K.}.z z i ].pX8.J qX,X .W #X@.K.&.z z h @X#XJ { ;XyXaXyXv.1 4 4 1 4 4 4 4 4 ",
"4 4 4 4 4 4 4 1 > x.7X9X7X<X} $ <.7Xo.A K.#.9.R.k z i ].wX8.J qX$XE E K.x M.x k j s |.|.H _ -X0X9X0Xv.< 4 4 < 4 4 4 4 4 ",
"4 4 4 4 4 4 4 4 < 5.Q.W.Q.E.} $ <. X3.K l i i s u u f ].7X8.J ,XY.F S S s s s i a S oX{.H [ E.!.W.Q.r.< 4 4 4 4 3 4 4 4 ",
"4 4 4 4 4 4 4 4 < { D.0.D.0.` $ <.P.! X.3.1.E K K K d U.+X+.G F.N.A K <.>.{ T T K A H.H.H I 9.9.9.D.{ & 4 4 3 4 4 4 4 4 ",
"4 4 4 4 4 4 4 4 < { N.Q.;XQ.[ % X.S.W Q oX4X%XoX#X%XQ 4.R.E b =.&.f 3.{.4XoXXXXX).K &.S.G | #X:X-XD.{ & 4 4 4 4 4 4 4 4 ",
"4 U 4 4 4 4 4 4 < _ B.Q.9X8X| v R m.R a S.K.'. XR._.H ~ S.R v d f t W H.oXoX=XoXY.S &.m.G | 8X9X!.N.X.& 4 4 4 4 4 3 4 4 ",
"4 4 4 4 4 4 4 4 < 6.T.T.T.'.T v R m.R a %.&.M.A.#.#.m ~ Z.R b ^ o.a W &.&.&.=.&.&.H &.M.G | L.L.w.R.q.& 4 4 4 3 { ` 4 4 ",
"4 4 4 / 4 4 4 4 2 x.9X+X9.2.I v R m.! u j j j j j j a ~ m.! b m.M.f u q w w w w w a 2.m.G [ 8.).XXwXh.& 4 ' 4 q.~.V.P 4 ",
"4 4 4 4 4 4 4 4 ; v.sXuXK.4.I v R m.! 7 7 7 6 6 7 7 e s m.R m Z.m.f 8 6 6 9 9 9 6 u &.M.G Y 1.F.tXuXc.& 4 } q./.(.9.4 4 ",
"4 4 4 4 4 4 4 4 2 7.:X;XS.1.V $ y j s u u u u u u u e e R m m ! o.s e 0 0 8 0 8 u e a s M Y 1.G. X-X7.& 4 ,.(.^.S.| 4 < ",
"4 4 4 4 4 4 4 2 ; P <.>.^ ^ U kXFXbXFXbXmXMXvXvXvXcXcXzXxXFXmXmXMXcXbXbXmXnXMXcXcXzXzXlXkXd.{ ^ >.>.I : I I.~.K.] q.4 4 ",
"4 4 4 4 4 4 # p.lXkXn.i.b.k.jXvXAXAXvXDXDXSXBXVXfXVXfXVXgXCXZXSXZXZXAXvXDXDXBXBXNXVXfXZXvXjXdXf.b.n.kXhXl.I.<.4 4 4 4 4 ",
"4 4 4 4 4 4 2 ; a.s.s.4 s.3 i.i.i.i.i.a.a.p.y.u.u.u.u.u.u.u.a.a.a.a.p.i.a.a.y.p.u.u.u.u.a.a.i.t.i.s.f.p.i.P 4 4 4 4 4 4 ",
"2 3 4 4 4 4 4 4 / 4 4 4 4 P 4 4 4 U / ' U U U 4 U U L L U U L U L P 4 U U U 4 L , L L L L , 4 , 4 4 4 4 4 4 4 4 4 1 < 4 "
};
