/* XPM */
static char *_423333083da46e9c09d371b129ea3e4rwL79pXINX8ZGTDc[] = {
/* columns rows colors chars-per-pixel */
"60 60 235 2 ",
"   c #0E0A0C",
".  c #180B0D",
"X  c #09141A",
"o  c #181A1B",
"O  c #220E11",
"+  c #261114",
"@  c #261A1B",
"#  c #291B1D",
"$  c #0E1A22",
"%  c #251D21",
"&  c #371F21",
"*  c #172729",
"=  c #182A38",
"-  c #0E3139",
";  c #3B2427",
":  c #2C3236",
">  c #472B2D",
",  c #4E2F32",
"<  c #4E3033",
"1  c #4C363C",
"2  c #503134",
"3  c #53363A",
"4  c #172F45",
"5  c #203F44",
"6  c #373D41",
"7  c #012A64",
"8  c #032F6A",
"9  c #063267",
"0  c #04336B",
"q  c #02386E",
"w  c #023B74",
"e  c #4C3B45",
"r  c #583E41",
"t  c #0F4951",
"y  c #195557",
"u  c #254247",
"i  c #3A4446",
"p  c #285657",
"a  c #34575D",
"s  c #085868",
"d  c #185A68",
"f  c #054577",
"g  c #02447A",
"h  c #024A7E",
"j  c #2F5666",
"k  c #116A77",
"l  c #2B6E6E",
"z  c #47464A",
"x  c #5D4347",
"c  c #564D50",
"v  c #595356",
"b  c #644D51",
"n  c #6A4F53",
"m  c #7F5F63",
"M  c #476672",
"N  c #74656A",
"B  c #6F6971",
"V  c #8A6D71",
"C  c #045484",
"Z  c #075486",
"A  c #055D8C",
"S  c #095B89",
"D  c #2C5B85",
"F  c #0A6386",
"G  c #0A6C8D",
"H  c #146885",
"J  c #196B8D",
"K  c #0C788E",
"L  c #1B758F",
"P  c #1C748F",
"I  c #066893",
"U  c #096A95",
"Y  c #0B7394",
"T  c #0C7796",
"R  c #0D7D9C",
"E  c #177796",
"W  c #1B7494",
"Q  c #137A97",
"!  c #1D7C94",
"~  c #127D9A",
"^  c #26758E",
"/  c #316A90",
"(  c #267995",
")  c #2B7C93",
"_  c #247E99",
"`  c #367996",
"'  c #0C7DA1",
"]  c #147FA1",
"[  c #386FA0",
"{  c #3873A2",
"}  c #3977AD",
"|  c #505B89",
" . c #41799E",
".. c #567B94",
"X. c #1F848E",
"o. c #0C8495",
"O. c #0E829D",
"+. c #1A8396",
"@. c #13849C",
"#. c #188699",
"$. c #1C849B",
"%. c #138A9C",
"&. c #18929F",
"*. c #23869B",
"=. c #288B9C",
"-. c #26939D",
";. c #36959B",
":. c #0D85A6",
">. c #1286A2",
",. c #1C86A4",
"<. c #158CA4",
"1. c #1B8CA3",
"2. c #158EA9",
"3. c #1692A5",
"4. c #1C93A4",
"5. c #1C99A2",
"6. c #1694A9",
"7. c #1C93AA",
"8. c #1D9AAD",
"9. c #1D9DB1",
"0. c #2285A5",
"q. c #268CA3",
"w. c #368BA4",
"e. c #2394A5",
"r. c #2C93A5",
"t. c #269DA7",
"y. c #2396AB",
"u. c #239CAB",
"i. c #2A9CAB",
"p. c #3195A5",
"a. c #3399A5",
"s. c #3B9CA3",
"d. c #3595A8",
"f. c #349CA9",
"g. c #3C9AAA",
"h. c #279CB1",
"j. c #349AB3",
"k. c #1FA0B2",
"l. c #24A2AB",
"z. c #2BA2AC",
"x. c #2BAAAF",
"c. c #35A4AD",
"v. c #3BA2AB",
"b. c #38A7AC",
"n. c #24A3B3",
"m. c #2CA4B3",
"M. c #25AAB1",
"N. c #2CABB4",
"B. c #2DACBA",
"V. c #33A5B3",
"C. c #33ACB5",
"Z. c #3AADB5",
"A. c #31ACBB",
"S. c #3DABBA",
"D. c #2DB1B7",
"F. c #2DB2B9",
"G. c #38B5B6",
"H. c #33B3BB",
"J. c #3CB5BB",
"K. c #35B9BD",
"L. c #3CBABD",
"P. c #488F8E",
"I. c #7E828E",
"U. c #469CAB",
"Y. c #44A5AC",
"T. c #51AFAD",
"R. c #44ABB3",
"E. c #4CABB4",
"W. c #45A7B8",
"Q. c #54ACB5",
"!. c #43B4BB",
"~. c #4BB4B9",
"^. c #44BBBC",
"/. c #4ABABC",
"(. c #55B4BB",
"). c #66B8BA",
"_. c #44C1BE",
"`. c #54C0BF",
"'. c #35B8C0",
"]. c #3CBAC1",
"[. c #45A8C0",
"{. c #45B6C1",
"}. c #44BCC2",
"|. c #4BBCC1",
" X c #57BAC2",
".X c #64BCC3",
"XX c #45C2C4",
"oX c #4BC3C4",
"OX c #4CC7C8",
"+X c #52C4C5",
"@X c #5BC4C7",
"#X c #51C9C6",
"$X c #52C5C8",
"%X c #55CACA",
"&X c #5BCDCC",
"*X c #5ED1CE",
"=X c #64C7C6",
"-X c #63C4C8",
";X c #62CCCC",
":X c #6BCDCD",
">X c #75CBCD",
",X c #6BD0CF",
"<X c #6FCED0",
"1X c #6BD3D3",
"2X c #6AD2D4",
"3X c #73D4D3",
"4X c #74D8D6",
"5X c #7BD9D8",
"6X c #87848E",
"7X c #A78387",
"8X c #AD8B8F",
"9X c #B28D92",
"0X c #B9959A",
"qX c #BE989C",
"wX c #9A99AC",
"eX c #93A5B1",
"rX c #A4A8B7",
"tX c #C1989D",
"yX c #CAA3A7",
"uX c #CFA9B4",
"iX c #D9ADB3",
"pX c #DDB1B6",
"aX c #E5B7BD",
"sX c #AAACC2",
"dX c #DCB7C6",
"fX c #E7BBC0",
"gX c #ECBDC3",
"hX c #81DDDC",
"jX c #B5C2D1",
"kX c #EFC1C5",
"lX c #F6C5CB",
"zX c #F9C7CD",
"xX c #FFCDD3",
"cX c #FFD0D6",
"vX c #FFD3D9",
/* pixels */
"G G Y <.<.3.6.6.<.~ ~ 1.u.y.1.>.@.Y Y Y R ~ @.4.4.1.Y Y R <.<.Y A A h g g g f f q q 0 9 9 0 0 0 0 0 0 8 7 7 7 7 7 7 7 7 ",
"G G Y <.<.<.3.6.<.~ ~ <.u.y.<.%.@.Y U Y R ~ @.4.4.1.Y Y R <.<.Y A A h g g g g g q 0 0 9 9 0 0 0 0 0 0 8 7 7 7 7 7 7 7 7 ",
"G G Y <.<.<.3.3.<.~ ~ <.y.u.<.%.@.Y U Y R ~ @.4.4.1.T Y R <.<.Y A A C g g g g g q 0 0 9 9 0 0 0 0 0 0 8 7 7 7 7 7 7 7 7 ",
"G G Y <.<.3.3.6.<.@.~ <.y.y.<.%.%.Y U Y R @.@.e.y.1.T Y R <.<.Y A A h g g g f f q q 0 9 9 0 0 0 0 0 0 8 7 7 7 7 7 7 7 7 ",
"@.@.1.m.m.m.m.m.u.y.4.Z.|.|.!.J.Z.4.>.1.V.Z.S.|.|.!.7.7.y.h.h.,.R R A C C A A A h h h D / D f w w f f q 8 8 q w w w w w ",
"3.<.4.Z.J.Z.C.C.N.z.z.|.:X;X%X+XoXh.6.u.}.oX+X,X2X+Xm.e.=.=.=.! Q >.U A A I U U C C S `  ./ g g h h h w 0 0 w g g h g g ",
"3.3.4.Z.Z.Z.C.C.N.z.z.|.:X;X$X+XoXu.3.y.^.oX+X,X2X+Xi.t X X X X t >.I A A U U U C C S `  ./ g f h h h w 8 0 w g g h g g ",
"3.<.4.Z.Z.Z.C.C.N.z.l.|.:X;X$X+XoXu.3.8.^.|.oX:X2XP.- o . . . . X - f A A I U I C C S `  ./ g f g h h w 8 8 w g g g g g ",
"z.z.z.J.J.J.^.^.J.C.C.|.;X&X&X&X&X!.Z.S.@X@X&X1X).p   . + + + + .   - F U ] ,.>.Q Q E { { ( F F F A A C C C C C C A F F ",
"_.^.^.^.^.oX&X;X+X^.^.+X&X*X1X4X4X2X2X2X3X3X3X>XP.. + + + + + + + +   s >.n.B.B.B.N.m.0.0.,.2.2.>.' ' ' ' ' I A I ' :.:.",
"_.^.^.^.^.oX;X;X+X}.^.$X*X*X1X4X4X2X2X2X3X3X3XT.o O O + + + + + + + O X K n.B.B.N.N.m.0.0.,.<.2.>.' R R ' ' I A I ' :.:.",
"^.^.^.^.^.oX;X;X+X}.}.$X*X&X1X4X4X2X,X2X3X3X=Xu O O + + + + + + + + + . - u.B.B.N.m.h.0.0.,.<.2.>.R R R ' ' I A A ' :.:.",
"oXoX_.^.^.oX;X;X+XXXXX#X&X&X1X4X4X1X1X1X3X3X).* O + O O O O O O O O + O $ V.'.'.H.A.V.q.q.e.7.7.2.<.<.>.>.>.T U U >.2.2.",
";X;X@X}.^.oX;X;X%XOXOX%X*X*X1X4X4X5X5X5X>X>X).* O ; x x x x x x x x & . * @X2X2X&X%XoXB.B.B.B.B.B.B.B.B.n.n.h.9.9.B.A.B.",
";X;X&X}.}.oX;X;X%XOXOX%X*X*X1X4X4X5XhX5X>X>X).* O m lXlXlXlXlXlXzXlXn O * -X4X2X&X&X$XA.B.B.B.B.H.H.H.B.N.N.n.9.9.B.'.'.",
";X;X&X}.^.oX;X;X%XOXOX%X*X*X1X4X4X5XhXhX>X>X).o 3 aXxXxXxXxXxXxXxXxXiX> * -X4X1X&X&X$XA.B.B.B.B.B.H.H.B.N.N.n.9.k.B.'.'.",
";X;X&X|.}.|.&X&X%XOXOX%X*X*X1X3X4X5XhX5X>X>X).o 3 lXxXxXxXxXxXxXxXxXkX< * -X2X2X&X%XOXH.B.B.B.B.H.H.H.B.B.B.n.9.k.F.'.'.",
"^.^./. X X|.J.J.}.OXOX%X&X*X&X%X%X,X<X:X(.Q.Y.* V zXiXpXxXxXxXaXuXxXlXm : `.%X#XoXoXXXL.L.}.oXoXoXoXXX}.].].H.F.D.K.'.'.",
"J.J.^..X.X(.H.H.^.#X#X%X&X&X#XoXOX;X:X=XR.R.s.i aXcXV 7XcXxXcX8XV xXxXpXi /.#XOXXX_._._._.oX%X%X%X#XOXOXXXXX].K.K.K.'.'.",
"J.J.!..X.X(.H.H.^.#X#X%X&X&X#XoX+X;X:X=XR.R.s.i aXcXV 7XcXxXcX9XV xXxXiXi /.#XOXXX_._._._.oX%X%X%X#XOXoXXXXX].K.K.K.'.'.",
"J.G.!..X.X(.H.H.^.#X#X%X&X&X#XoX+X;X:X=XR.R.R.P.N zXpXaXxXxXxXaXpXxXlXN P.%XoXoXXX_._._._.oX%X%X%X#XOXoXXXXX].H.K.K.'.'.",
"C.N.V.Y.Y.b.l.l.G.#X#X;X1X2XoXJ.!.~.Q.E.b.b.!.Y.z lXxXxXxXxXxXxXxXxXkXz (.oX_._.L.L.L.XXXXoX%X&X%X%X%X%X#X$X].D.H.K.K.K.",
"l.l.t.-.-.-.5.5.C.+X+X,X5X5X/.V.C.g.s.s.b.c.Z.s.z lXxXxXiXyXiXxXxXxXkXi T._.G.G.K.K.L.XXXXOX&X&X&X&X&X&X;X;X].F.D.H.K.K.",
"l.l.t.-.-.-.5.5.C.+X+X:X5X5X/.V.C.s.s.s.b.c.Z.v.z gXxXzXn ; b lXxXxXaXi T._.G.G.K.K.L.XXXXOX&X&X&X&X&X&X;X;XL.D.D.H.H.H.",
"l.l.t.-.=.-.5.5.C.+X+X:X5X5X~.V.C.s.s.s.b.b.Z./.l V xXxXpXyXiXxXxXxXN P.%X^.G.G.K.K.K.}.}.OX&X&X&X&X&X&X;X;X].F.D.H.H.H.",
"5.5.5.$.$.&.&.&.x.|./.@X<X<X~.Z.Z.s.s.s.c.z.a.l p a 0XcXxXcXxXxXcX8XM T.l l G.G.L.L.L.XXXXoX%X%X&X&X&X&X&X&X}.H.J.].].].",
"o.o.o.o.o.%.-.-.i.C.C.^.$X+X~.R.R.s.s.a.e.-.k o * t c tXgXxXxXfXtXx l l o * ;.^._._.XXXXXXXXoXoX#X&X&X&X&X&X$X+X+X%X%X%X",
"o.o.o.o.o.%.-.-.t.C.C.^.+X+X~.W.R.s.s.a.-.X.* > ;   + ; 9XaXfX7X; .   . > & y _._.XXXXXXOXOXoXoX#X&X&X&X%X%X$X+X+X%X%X%X",
"o.o.o.o.o.%.-.-.t.C.N.^.@X+X~.W.R.s.s.a.-.t ; 2 , > > ; > < < > ; > > > 2 & y _._.XXXXoXoXoXXXoX#X&X&X%X&X%X$X+X+X%X%X%X",
"o.o.o.%.%.#.-.-.t.x.x.!.|.|.!.R.R.v.s.s.r.- ; 2 2 2 < > & & & & > 2 2 2 2 & y _._._.XXXXXXXXXXoX+X%X%X%X%X%X+XoX+X%X%X%X",
"o.o.$.~.(.E.v.v.c.z.z.z.b.b.f.f.f.E.E.E.g.- ; , , 2 2 < > ; > > 2 2 2 , , & a :X|.}.L.N.N.H././././././.|.|.^.J.L.oX+X$X",
"+.o.=. X X(.Y.Y.b.l.l.z.z.i.f.a.a.E.Q.E.U.= 3 n x > < 2 < < < 2 < < > x n < a 1X|.}.L.M.M.C./././././././.^.J.J.J.oX$X$X",
"o.Q =. X X(.Y.Y.c.l.l.z.c.i.f.a.a.E.Q.E.U.5 9XzX9X# < < 3 2 2 < 3 2 # tXzX7Xa 1X|.}.J.M.M.C./././././././.^.J.J.J.oX$X$X",
"+.Q =. X X(.Y.Y.v.l.l.z.i.f.f.a.a.E.Q.E.U.5 qXvX0X@ < : 6Xb , ; B B @ yXvX8Xa 1X|.}.J.M.M.C.^.^.^././.^.^.!.J.J.J.|.+X$X",
"( ( ) w.w.d.E.E.E.~.~.f.*.*.p.f.f.v.v.v.U.u qXvX0X@ < : eXn , ; ..6X@ yXvX8Xp @X|.|.^.J.J.H.C.C.x.z.z.z.z.z.C.Z.Z.^.}.}.",
"` ` ^ W J =.Q.Q.(.-X-Xg.! ! p.b.c.a.a.a.Y.u qXvX0X@ < : I.b , ; B B @ yXvX8Xp +X|.|.|.|.}.J.M.M.l.4.4.4.5.5.z.Z.C.J.J.J.",
"` ) ^ P P =.Q.Q.(.-X-Xg.! ! p.b.c.a.a.a.Y.u qXvX0X@ < < r 3 < 3 3 < @ yXvX8Xp +X|.|.|.|.{.J.M.M.l.4.4.4.5.5.z.C.C.J.J.J.",
"` ) ^ P P =.Q.Q.(.-X-Xg.! ! p.b.c.a.p.a.Y.u qXvX0X@ < 3 wXb , N 6X, @ yXvX8Xp +X|.|.|.{.{.J.M.M.u.4.4.4.5.5.z.c.C.J.J.J.",
"^ ^ ^ J J ( Y.Y.W.R.R.r.! ! q.r.r.p.p.p.U.u qXvX0X@ , 3 sXsXrXjXwX, @ yXvX8Xp +X@X@X X!.!.Z.M.x.u.3.3.3.&.&.C.!.!.J.J.J.",
"J J J H H W d.d.q.+.+.+.+.+.$.*.*.=.w.w.U.u qXvX0X@ , 2 6XrXrXrXB , # yXvX8Xp $X:X>X-XZ.Z.Z.N.N.t.3.&.%.%.%.!.@X@X}.J.J.",
"J J J H H W r.p.q.+.+.+.+.+.$.*.*.=.w.w.U.u qXvX0X% e e e e e e e 1 # yXvX8Xp $X:X>X-XZ.Z.Z.N.N.u.3.&.%.%.%.!.@X@X}.J.L.",
"J J J H H W r.p.q.+.+.+.+.+.$.*.*.=.=.w.U.u 0XvX0X4 D / [ [ [ [ [ D * yXcX8Xp @X:X>X-XZ.Z.Z.V.N.t.%.%.%.%.%.!.@X@X}.^.^.",
"W W J H H W q.r.*.+.+.$.$.$.+.! +.=.=.w.U. .v fXqX= / { } } } } } [ = yXpXv s.+X-X-X@XG.Z.V.l.l.t.3.3.%.%.%.Z. X|.!.J.J.",
",.,.$.W L E E E ! _ _ w.g.g.L H H ^ ) ) w.w.j N b = [ } } } } } } } j N N l G.C.C.V.N.N.N.l.K K %.u.u.&.%.%.i.Z.C.z.l.l.",
"1.1.,.W W E Q E ! _ _ w.g.g.L H H ^ ) ) w.w.` - X 4 } } } } } } } } { $ - x.C.H.N.M.M.N.N.t.K K %.t.u.3.%.%.i.V.V.l.t.t.",
"1.1.,.W W E E E ! _ _ w.g.g.L H H ^ ) ) w.w.w.( d 4 } } } } } } } } [ - =.Z.C.C.N.M.M.N.N.t.K K %.u.l.3.%.%.i.V.V.l.t.t.",
"1.1.,.E W E Q Q ! _ _ w.g.g.L H H ^ ) ) w.w.w.*.d 4 } } } } } } } } [ - -.Z.C.C.N.M.M.D.D.l.K K %.t.t.3.%.%.i.V.V.z.t.t.",
",.,.,.@.@.$.e.e.q.=.=.*.*.$.J F F ( ) ( W E E ~ s z sXsXrXa 4 M sXsXwX: *.C.H.H.N.M.N.K.J.N.#.#.e.z.z.y.#.#.e.e.y.u.z.z.",
"0.,.,.@.@.1.i.i.r.q.q.$.~ ~ G F F ( _ _ E Y Y ~ s b xXxXgX: X c xXxXkX6 +.N.H.H.N.N.N.L.].A.e.1.y.z.z.e.1.1.1.1.1.i.z.z.",
"0.0.,.@.@.1.u.i.r.q.q.$.~ ~ G F F ( _ _ E Y E ~ s v xXxXfX: s c xXxXgX6 +.N.K.H.N.N.C.J.].A.e.1.y.z.z.e.1.1.1.1.1.i.z.z.",
"0.0.,.$.@.1.y.i.r.q.q.$.~ ~ G F F ( _ _ E U E ~ s v xXxXfX: s c xXxXgX6 ! N.H.H.N.N.C.J.].Z.e.1.y.z.z.y.1.1.1.<.4.i.z.z.",
"j.j.j.y.y.y.e.e.e.e.e.1.@.@.T G G W ( ( Q T R <.k v xXxXfX6 s c xXxXgX6 =.H.H.H.N.N.C.H.J.C.i.i.i.m.m.y.3.3.3.3.3.8.y.y.",
"[.W.S.N.N.i.1.1.4.4.4.1.>.>.O.R R E W W ~ O.>.6.k v xXxXgX6 s c xXxXkXi v.K.D.N.C.C.C.C.C.C.V.V.V.N.N.u.<.<.<.<.<.<.2.2.",
"W.W.S.m.N.u.1.1.4.4.8.1.>.>.O.R R E W W ~ O.@.6.k c dXdXuX: s z dXdXuX6 v.K.D.D.C.C.C.C.C.V.V.V.V.N.N.u.<.<.<.<.<.<.2.2.",
"W.[.S.m.m.u.1.1.4.4.4.1.>.>.O.R R W W W @.O.>.6.k = | | | = s = | | | = v.H.D.D.C.C.C.C.C.V.V.V.V.N.N.u.<.<.<.<.<.<.2.2.",
"j.j.j.B.B.m.4.4.4.4.4.1.1.1.>.O.O.Q E E @.O.>.9.k X X $ X $ d X X X X X v.H.D.H.A.C.C.m.m.N.Z.Z.C.N.N.u.3.3.3.3.3.8.8.8.",
"Q Q >.B.A.m.8.8.7.1.1.y.m.h.8.3.3.@.~ ~ >.>.<.n.$.y t t t d *.d y y y l Z.H.H.H.H.A.C.u.8.m.!.{.S.C.C.n.8.8.8.8.u.m.V.V.",
"Q Q >.A.A.m.8.u.7.1.1.y.m.m.8.3.6.O.O.O.>.<.6.n.n.9.6.6.u.m.m.B.B.B.H.].K.K.H.H.H.H.C.u.8.m.{.{.J.Z.Z.n.8.8.8.8.u.m.V.V.",
"Q T >.A.A.m.8.u.7.1.1.y.m.m.8.6.3.O.O.O.>.<.6.n.n.8.3.3.8.m.m.m.N.N.H.K.K.H.H.H.H.H.C.u.8.m.{.{.S.Z.Z.n.8.8.8.8.u.V.V.V.",
"Q T >.A.A.m.u.u.7.1.1.y.m.m.8.6.3.O.O.O.>.<.6.n.n.8.<.6.8.m.m.m.N.N.H.K.K.H.H.H.H.H.C.u.8.m.{.{.S.Z.Z.n.8.8.8.8.u.V.V.V."
};
