/* XPM */
static char *out[] = {
/* columns rows colors chars-per-pixel */
"60 60 235 2 ",
"   c #001537",
".  c #001741",
"X  c #042C43",
"o  c #0C3448",
"O  c #073756",
"+  c #003D5C",
"@  c #00435E",
"#  c #19425F",
"$  c #034966",
"%  c #17496B",
"&  c #134C6D",
"*  c #13516C",
"=  c #134971",
"-  c #055577",
";  c #185676",
":  c #204D62",
">  c #2E4C75",
",  c #295978",
"<  c #295D7E",
"1  c #0E627B",
"2  c #29627A",
"3  c #445A71",
"4  c #4A677C",
"5  c #777B7E",
"6  c #0D5580",
"7  c #1A5D87",
"8  c #2E5E83",
"9  c #0C6A87",
"0  c #1A698A",
"q  c #156F90",
"w  c #1C7696",
"e  c #256987",
"r  c #396689",
"t  c #246D96",
"y  c #25769C",
"u  c #30709A",
"i  c #367FA6",
"p  c #425D87",
"a  c #496D91",
"s  c #847E8E",
"d  c #1C86A4",
"f  c #3586A7",
"g  c #3C81AA",
"h  c #2A88B3",
"j  c #3884B5",
"k  c #3091B4",
"l  c #40849A",
"z  c #768A8D",
"x  c #799493",
"c  c #4387AB",
"v  c #578AAA",
"b  c #658BA8",
"n  c #7A89A8",
"m  c #6793AF",
"M  c #6E9DB0",
"N  c #7C9AB6",
"B  c #74A0BA",
"V  c #0E99C5",
"C  c #1A9CC6",
"Z  c #1B9DD6",
"A  c #369BC8",
"S  c #269EDB",
"D  c #15A3CE",
"F  c #1BA3D5",
"G  c #1EADD6",
"H  c #16A6DB",
"J  c #1CACDC",
"K  c #1FB0D6",
"L  c #1CB0DD",
"P  c #26A6C6",
"I  c #26A5CD",
"U  c #23AACD",
"Y  c #2CAACD",
"T  c #37A7C8",
"R  c #3BA3CB",
"E  c #3CADCD",
"W  c #3AB6CF",
"Q  c #24A6D3",
"!  c #23ACD4",
"~  c #2CABD4",
"^  c #24A4DD",
"/  c #2DA4DC",
"(  c #24ABDD",
")  c #2AAADD",
"_  c #34A6D5",
"`  c #39A4D3",
"'  c #3AABD4",
"]  c #35A7DB",
"[  c #34AADD",
"{  c #3BAADD",
"}  c #26B4DA",
"|  c #2AB3DC",
" . c #38B3D8",
".. c #239BE0",
"X. c #2C9DE3",
"o. c #15A7E1",
"O. c #1EACE2",
"+. c #1BACEC",
"@. c #1EB2E5",
"#. c #25A5E3",
"$. c #2CA5E4",
"%. c #27AAE1",
"&. c #29AAE3",
"*. c #24A7EB",
"=. c #2CA5EA",
"-. c #24ACEA",
";. c #2BABEB",
":. c #31A4E3",
">. c #36A7E5",
",. c #31A5EA",
"<. c #32ABE9",
"1. c #24B1E3",
"2. c #2BB2E4",
"3. c #25B4EC",
"4. c #2BB3ED",
"5. c #2FBAEC",
"6. c #35B3EA",
"7. c #35B9E8",
"8. c #26A9F2",
"9. c #36A8F4",
"0. c #3AB3F8",
"q. c #479ECA",
"w. c #5095C0",
"e. c #42A2C4",
"r. c #47A7CB",
"t. c #50ABC8",
"y. c #46AAD7",
"u. c #43A5DD",
"i. c #49B1D6",
"p. c #44B3DA",
"a. c #55B6DB",
"s. c #46A7E1",
"d. c #4BBDE6",
"f. c #40B5F2",
"g. c #47C0E5",
"h. c #878597",
"j. c #938D9E",
"k. c #8A96A4",
"l. c #9492A9",
"z. c #999DA9",
"x. c #A99EB5",
"c. c #8CA8AA",
"v. c #92B4AF",
"b. c #AEA8B6",
"n. c #B6B4BF",
"m. c #97ADCA",
"M. c #9BBBD8",
"N. c #ACB8C9",
"B. c #AFAFD2",
"V. c #B8BBD2",
"C. c #96BEE2",
"Z. c #BAB6E1",
"A. c #C4BFD6",
"S. c #C7BAE8",
"D. c #B0CECC",
"F. c #A8C3DF",
"G. c #BAC8D2",
"H. c #BAD7D9",
"J. c #9DC4E3",
"K. c #B9CBEA",
"L. c #D2CECD",
"P. c #CAC4DB",
"I. c #C7CAD9",
"U. c #D6C4D7",
"Y. c #D2CBD9",
"T. c #CBD3DC",
"R. c #D4D5D7",
"E. c #DDD4DD",
"W. c #D5DEDC",
"Q. c #DBDCDD",
"!. c #E2D7DE",
"~. c #CCE5DB",
"^. c #CAE9DC",
"/. c #D2E3DE",
"(. c #DDE2DE",
"). c #C7CDE7",
"_. c #D4CDE6",
"`. c #DACDEA",
"'. c #C9D6E7",
"]. c #CBD9E5",
"[. c #CCD3ED",
"{. c #D5D3E5",
"}. c #DCD3E4",
"|. c #D1DAE4",
" X c #DDDCE4",
".X c #D4D5EA",
"XX c #DDD5EA",
"oX c #D4DBEC",
"OX c #DADBEB",
"+X c #C9DBF7",
"@X c #DADAF4",
"#X c #E5D5E6",
"$X c #E3DBE3",
"%X c #E3DAEB",
"&X c #EADDEA",
"*X c #E2CEF0",
"=X c #E8D6F7",
"-X c #E4DDF3",
";X c #EBDBFB",
":X c #F4D7FF",
">X c #C7E7E6",
",X c #CBE2E4",
"<X c #CBEDE5",
"1X c #CCECE9",
"2X c #D3E4E4",
"3X c #DBE8E6",
"4X c #D3E3ED",
"5X c #DAE4EB",
"6X c #D4E9EB",
"7X c #CDF5E8",
"8X c #C6E7FF",
"9X c #DCE2F4",
"0X c #D5E6F9",
"qX c #DCEDFB",
"wX c #CEF4FB",
"eX c #D6F5FF",
"rX c #DCF3FF",
"tX c #DDFFFF",
"yX c #E4E3E5",
"uX c #EDE2E6",
"iX c #E3E3EB",
"pX c #E8E7EC",
"aX c #E2E4F3",
"sX c #EBE4F4",
"dX c #E7E7F8",
"fX c #E3EDFF",
"gX c #EAECFD",
"hX c #F7E8FB",
"jX c #E6F1FD",
"kX c #EDF2FF",
"lX c #E4FFFF",
"zX c #EAFDFF",
"xX c #F3F4FF",
"cX c #F9F2FF",
"vX c #F5FEFF",
/* pixels */
"%.%.%.%.%.%.%.%.%.%.%.%.%.%.%.%.%.%.%.%.%.%.%.( &.%.%.%.%.%.%.%.%.%.%.%.%.%.%.%.%.%.%.%.%.%.%.%.%.%.%.%.%.%.%.%.%.%.%.%.",
"%.%.%.%.%.%.%.%.%.%.%.%.%.%.%.%.%.%.%.%.%.&.%.%.%.%.%.%.%.%.&.%.%.%.%.%.%.%.%.%.%.%.%.%.%.%.%.%.%.%.%.%.%.%.%.%.%.%.%.%.",
"%.%.%.%.%.%.%.%.%.%.%.%.) %.%.%.%.%.%.%.%.&.%.%.&.%.%.%.%.%.( &.%.%.%.%.%.%.%.%.%.%.%.%.%.%.%.%.%.%.%.%.%.%.%.%.%.%.#.%.",
"%.%.%.%.%.%.%.%.%.%.%.%.%.%.%.%.%.%.%.%.%.%.%.%.%.%.( &.%.%.%.%.%.%.%.%.%.%.%.%.%.%.%.%.%.%.%.%.%.%.%.%.%.%.) &.%.%.^ %.",
"%.%.%.%.%.%.%.%.%.%.%.%.%.%.%.%.%.%.%.%.%.%.&.) %.%.%.%.%.%.%.%.%.%.%.%.%.%.%.%.%.%.&.) %.%.%.%.%.%.%.%.%.%.%.%.%.%.%.%.",
"%.%.%.%.%.%.%.%.%.%.%.%.%.%.%.%.%.%.%.%.%.%.%.%.%.%.%.%.%.%.%.%.%.%.%.%.%.%.%.%.%.%.%.%.%.%.%.%.%.%.%.%.%.%.%.%.%.%.%.%.",
"%.%.%.%.%.%.%.%.%.%.%.%.%.%.%.%.%.%.%.%.%.%.%.%.%.%.%.%.%.&.%.%.%.%.%.%.%.) %.%.%.%.%.%.%.%.%.%.%.%.%.%.%.%.%.%.%.%.%.%.",
") %.%.%.%.%.%.%.%.%.%.%.%.%.%.%.%.%.%.%.%.%.%.%.( &.%.%.%.( &.%.%.%.%.%.%.%.%.%.%.%.%.%.%.%.%.%.%.%.%.%.%.%.%.%.&.( &.%.",
"%.%.%.%.%.%.%.%.%.%.%.%.%.%.%.%.%.%.( &.&.( %.%.&.%.%.%.%.( #.&.%.%.%.%.%.%.%.%.%.%.%.%.%.%.%.%.%.%.%.%.%.%.%.%.&.%.%.%.",
"%.%.%.%.%.%.%.%.&.) %.%.%.%.%.%.%.%.%.%.%.%.%.%.%.%.%.%.%.&.%.^ %.%.%.%.%.%.%.%.%.%.%.%.%.%.%.%.%.%.%.%.%.%.%.%.( &.%.%.",
"%.%.%.%.%.%.%.%.%.%.%.%.%.%.%.%.%.%.%.%.%.%.&.%.%.%.%.%.%.%.%.%.%.%.%.%.%.%.%.%.%.%.%.%.%.%.%.%.%.%.%.%.%.%.%.%.&.( %.%.",
"%.%.%.%.%.%.%.%.%.%.%.%.%.%.%.%.%.%.%.%.%.%.%.%.%.%.%.%.%.%.%.%.%.%.%.%.%.%.%.%.%.%.%.%.%.%.%.%.%.%.%.%.%.%.%.%.%.%.%.%.",
"%.%.%.%.%.%.%.%.%.%.%.%.%.%.%.%.%.%.%.%.%.%.%.%.%.%.%.%.%.%.%.%.%.%.%.%.%.%.%.%.%.%.%.%.%.%.%.%.%.%.%.%.%.%.&.%.&.%.%.%.",
"%.%.%.%.%.%.%.%.%.%.%.%.%.%.%.%.%.%.%.%.%.%.%.%.%.%.%.&.%.%.%.%.%.%.%.%.%.%.%.%.%.%.%.%.%.%.%.%.%.%.%.%.%.%.( &.%.%.%.%.",
"%.%.%.%.%.%.%.%.%.%.%.%.%.%.%.) ) %.%.%.&.%.%.&.%.%.&.&.%.) %.%.( %.%.%.%.%.%.%.%.%.%.%.%.%.%.%.%.&.) %.%.%.&.&.%.%.( %.",
"%.%.%.%.%.%.%.%.%.%.%.%.%.%.%.$.&.&.%.%.( ( ( ( ) ) ~ ~ / / _ / ) ) ( %.%.&.&.#.$.&.) $.%.( %.%.%.%.%.%.%.%.&.( %.%.&.%.",
"%.%.%.%.%.%.%.%.%.%.%.%.%.%.%.%.f.S ^ 7.J G | Q Y ' p.a.i.a.i.E P U | | F 4.=...,.:.:.:.&.) ( %.) %.%.%.%.%.%.%.%.%.%.%.",
"%.%.%.%.%.%.%.%.%.%.%.%.%.%.%.%.$.S 6.Q ! I I E i.q + @ $ + @ 1 T  .P C 7.^ #.0.,.:.:./ ) ( ) ( %.%.%.%.%.%.%.%.%.%.%.%.",
"%.%.%.%.%.%.%.%.%.%.%.%.%.%.%.%.#.5.Q / ` y.a.e O v J.J.m.F.M.B X w e.y.] ^ ^ &.%.%.%.) ( ) ) %.%.%.%.%.%.%.%.%.%.%.%.%.",
"%.%.&.%.%.%.%.%.%.%.%.%.%.%.%.%.3.J ( { A t O v K.zXvXkXfXxXvXfX8Xv O f r.A 6.) %.O.%.( %.) ) ^ %.%.%.%.%.%.%.%.%.%.%.%.",
"%.%.%.%.%.%.%.%.%.%.%.%.%.%.%.%.L D 7.` w.a qXkXxX XY.yXsXuX$XsXcX+XlX< u a.P U L L L O.( %.) %.&.&.%.%.%.%.%.%.%.%.%.%.",
"%.%.%.%.%.%.%.%.%.%.%.%.%.%.%.%.@.3.[ y . K.xX%XE.uXuXR.R.!.$X!.#X;X+XkX2 q a.Y ! L L L L %.%.%.&.( %.%.%.%.%.%.%.%.%.%.",
"%.%.) %.%.%.%.%.%.%.%.%.%.%.%.) d 5.h $ m.s B.#XpX(.~.^././.W.$XU.:X-XfXlX2 w r.Y ! L L O.1.%.%.%.%.%.&.%.%.%.%.&.%.%.%.",
"%.%.%.%.%.%.%.%.%.%.%.%.%.%.%.^ g.d 7 J.qX).s b.R.~.<X^.^.,X2XOXsX#X}..XwXwXl w T ~ } ( %.O.( %.%.%.&.( %.%.%.%.) %.%.%.",
"%.%.%.%.%.%.%.%.%.&.&.#.( %.2.[ q.e r fX[.hXL.5 c.7X7XD.7XwX'.OX{.uXyX5X].lXM ; r.y.[ ( &.#.( &.%.%.%.%.%.%.%.%.%.%.%.%.",
"%.%.%.%.%.%.%.%.%.2.2.%.%.&.&.] c # F.K.dXaXdXI.z c.H.wX>X8X@XOX XyXQ.Q.5X5XrX2 i q.{ &.&.%.J 1.%.%.%.%.%.%.%.%.%.%.%.%.",
"%.%.%.%.%.%.%.%.%.&.&.( %.&.&.` < 3 qX.X`.aXaXxXD.z c.+X@X`.:X;X5X4X~.R.pXR.vXN 8 w.s.:.#.%.J 1.%.%.%.%.%.%.%.%.%.%.%.%.",
"%.%.%.%.%.%.%.%.%.&.%.#.%.%.%.R O k.I.xXP.-X XOXvXL.h.b.`.:X:X=X].2X/.(.(.yXoXrX= i s./ #.1.%.^ ^ %.%.%.%.%.%.%.%.%.%.%.",
"%.%.%.%.%.%.%.%.%.&.&.%.%.&.( A X x.I.5X9X|.gX{.@XgXP.j.x.:XhX`.4X,X4X3XL.pXG.zX= i s.,.#.2.1.J ( %.%.%.%.%.%.%.%.%.%.%.",
"%.%.%.%.%.%.%.%.%.&.%.%.%.%.#.A X z.].|.9XOX9X@X_.-XcXP.j.l.XXaXqX'.iXyXL.yXjXeX6 j >.X.#.2.| ! %.%.%.%.%.%.%.%.%.%.%.%.",
"%.%.%.%.%.%.%.%.%.%.%.%.%.2.( A o z.T.2X].0X[.9XaX.XdXkXN.x v.>X0XoXiXyX!.(.lXwX; h { $.#.1.( ( ) %.%.%.%.%.%.%.%.%.%.%.",
"%.%.%.%.%.%.%.%.%.%.%.%.&.2.^ A o k.T.].fXoX9X.XoX@XT.4XzXD.x v.'.oX%X!.uXQ.I.tX- h >.&.#.( / [ %.%.%.%.%.%.%.%.%.%.%.%.",
"%.%.%.%.%.%.%.%.%.%.%.%.%.%.&.R # x ).xX_.OX@XaX9XqX2X'.9XcXU.s N.G.jXQ.!.!.5XtX$ k 7.H 3.;.S >.$.%.%.%.%.%.%.%.%.%.%.%.",
"%.%.%.%.%.%.%.%.%.%.%.%.%.%.%.` * 4 K.N.cX;X`.|.].4X6X].5XsX&XU.z v.T.E.E.E.vXb 9 Y 2.H -.;.:.>.$.%.%.%.%.%.%.%.%.%.%.%.",
"%.%.%.%.%.%.%.%.%.%.%.%.%.%.%.` f : c.+X.X;XXX%X|.,X1X1X>X~.6XkXG.h.n.$XhXY.fX, f ' 2.O.-.;.X.>.&.) %.%.%.%.%.%.%.%.%.%.",
"%.%.%.%.%.%.%.%.%.%.%.%.%.%.%._ t.; , eX).XX}.pXiX2X^.<X<X>X<X1XpXV.j.x.P.vXb ; r.s.( #.3.*.S <.&.%.%.%.%.%.%.%.%.%.) %.",
"%.%.%.%.%.%.%.%.%.%.%.%.%.%.%./ W f $ m 0X-X}.!.!.Q.W.~.<X<X>X,XkXcXA.s ).rX> g y.>.^ *.4.-.^ %.%.%.%.%.&.%.%.%.%.%.%.%.",
"%.%.%.%.%.%.%.%.%.%.%.%.%.%.( ) ~ T f * m [.-X%X!.yX(.W.W.2X6X9X.X@XcXm.p r u q.u.] $.;.;.#.( %.%.%.%.%.&.%.%.%.%.%.%.%.",
"%.%.%.%.%.%.%.%.%.%.%.%.%.%.%.( } } p.y = n [.}.#X&X&X$X}.}.%X-X_.gX+XC.  g a.u.u.X.=.;.%.#.%.O.%.%.%.%.&.^ %.%.%.%.%.%.",
") %.%.%.%.%.%.%.%.%.%.%.%.%.%.%.H 1./ y.g % N N.OX}.}.%X-X`.*X=X0XM.m $ t.A ` / >.X.,.=.#.%.1.( %.%.%.%.%.%.%.%.%.%.%.%.",
"%.%.%.%.( &.%.%.%.%.%.%.%.%.%.-.+.+.;.>.e.f < O b m.K.Z.B.S.Z.Z.b & + w p._ F &.$.=.,.=.$.$.) %.%.%.%.%.%.%.%.%.%.%.%.%.",
"%.%.%.%.&.&.%.%.%.%.%.%.%.%.( -.+.+.O.#.>.A k f @ * , 8 p p 8 > + y r.' ~ 2.3.-.;.#.$.$.$.$.%.%.%.%.%.%.%.%.%.%.%.%.%.%.",
"%.%.%.%.%.&.%.%.%.%.%.%.%.%.( &.8.8.+.#.) [  . .T d 9 - - 6 0 u e.y. .I F @.+.H -.%.%.&.$.&.&.#.%.%.%.%.%.%.%.%.%.%.%.%.",
"%.%.%.%.&.( %.%.%.%.%.%.%.%.%.%.=.8.*.-.O.J G G K U  .d.s.` T ' p.Y Q 2.1.o.o.3.O.( %.) &.$.$.;.%.%.%.%.%.%.%.%.%.%.%.%.",
"&.%.%.%.%.%.%.%.%.%.%.%.%.%.&.%.$.=.;.;.O.O.L L K G ! ! ! Q | 7.C U 2.2.*.*.3.-.O.( ! } ) #.=.;.;.%.%.%.%.%.%.%.%.%.%.&.",
"( &.%.%.%.%.%.%.%.%.%.%.%.%.%.&.&.&.%.%.O.O.O.-.1.1.-.( G G F V 5.1.H Z ..=.;.O.( G } ! ( &.=.*.&.%.%.%.%.%.%.%.%.%.%.) ",
"%.%.%.%.%.%.%.%.%.%.%.%.%.%.%.%.) ~ ( #.#.#.&.=.=.X.#.:.<.6.2.&.F F =.0.9.X.X.6.! ! K K %.%.8.=.#.%.%.%.%.%.%.%.%.%.%.%.",
"%.%.%.%.%.%.%.%.%.%.%.%.%.%.%.%.) ! ( %.2.2.;.,.,.:.:.:.^ S Q %.&.&.#.=.=.,.:.^ | ! ! L ( *.=.*.&.%.%.%.%.%.%.%.%.%.%.%.",
"%.%.%.%.%.%.&.%.%.%.%.) %.%.%.%.) %.) %.%.%.#.&.&.$.$.&.&.&.( &.&.-.%.&.#.$.&.%.( ^ ) ( %.%.%.*.&.%.%.%.%.%.%.%.%.%.%.%.",
"%.%.%.%.( &.%.%.%.%.%.&.%.%.%.%.%.%.%.%.%.%.%.%.%.%.) %.( &.%.%.%.( %.%.&.%.%.%.%.%.%.%.%.%.%.%.%.%.%.%.%.%.%.%.%.%.%.%.",
"&.%.%.%.%.&.%.%.%.%.%.%.%.%.%.%.%.%.%.%.%.%.%.%.%.%.%.%.&.&.%.%.%.%.%.%.%.%.%.%.%.%.( %.%.%.%.%.%.%.%.%.%.%.%.%.%.%.%.%.",
"( &.%.%.%.( %.%.%.%.%.%.%.%.%.%.%.%.%.%.%.%.%.%.%.%.%.%.&.( %.%.%.%.%.%.%.%.%.%.%.%.&.%.%.%.%.%.%.%.%.%.%.%.%.%.%.%.%.%.",
"&.( %.%.%.&.( &.%.%.%.%.%.%.%.%.%.%.%.%.%.%.%.%.%.%.%.%.%.%.%.%.%.%.%.%.%.%.%.%.%.&.%.%.&.%.%.%.%.%.%.%.%.%.%.%.^ %.%.%.",
"%.&.%.%.%.#.( &.%.%.%.%.%.%.%.%.%.%.%.%.%.%.%.%.%.%.%.%.%.%.%.%.%.%.%.&.%.%.%.%.%.&.%.%.( %.%.%.%.%.%.%.%.%.%.%.&.&.%.%.",
"%.%.%.%.%.%.&.%.%.%.%.%.%.%.%.%.%.%.%.%.%.%.%.%.%.%.%.%.%.%.%.%.%.%.%.%.%.%.%.%.%.( %.%.&.%.%.%.%.%.%.%.%.%.%.%.%.%.%.%.",
"%.%.%.%.%.%.%.%.%.%.%.%.%.%.%.^ %.%.%.%.%.%.%.%.%.%.%.%.%.%.%.%.%.%.%.%.%.%.%.%.%.%.%.%.%.%.%.%.%.%.%.%.%.%.%.%.%.%.%.%.",
"%.%.%.%.&.( &.%.%.%.%.%.%.%.( &.%.%.%.%.%.%.%.%.&.&.%.%.&.) %.%.%.%.%.%.%.%.%.%.%.%.%.%.%.%.%.%.%.%.%.%.%.%.&.%.%.%.%.%.",
"%.%.&.( %.%.%.%.%.%.%.%.%.%.#.&.%.%.%.%.%.%.%.%.^ %.%.%.%.%.%.%.%.%.%.%.%.%.%.%.&.) %.%.&.( %.%.%.%.%.%.%.%.) %.%.%.%.%.",
"%.%.&.%.&.%.#.( ( &.%.%.%.%.%.%.%.%.%.%.%.&.%.%.%.%.%.%.%.%.%.%.%.%.%.%.%.%.%.%.%.%.&.&.%.&.%.%.%.%.%.%.%.%.%.%.%.%.%.%.",
"%.%.%.%.( &.&.%.&.%.%.%.%.%.%.%.%.%.%.%.%.%.%.%.%.%.%.%.%.%.%.%.%.%.&.%.%.%.%.%.%.%.&.( %.%.%.%.%.%.%.%.%.%.%.%.%.%.%.%."
};
