/* XPM */
static char *out[] = {
/* columns rows colors chars-per-pixel */
"60 60 224 2 ",
"   c #002661",
".  c #012A64",
"X  c #022F69",
"o  c #043066",
"O  c #03346B",
"+  c #01386F",
"@  c #0C396E",
"#  c #013770",
"$  c #013C73",
"%  c #014176",
"&  c #014479",
"*  c #024B7E",
"=  c #0B4A7C",
"-  c #09587E",
";  c #0C637F",
":  c #014E81",
">  c #035383",
",  c #045987",
"<  c #045C8A",
"1  c #085F8B",
"2  c #125B86",
"3  c #245984",
"4  c #0E6482",
"5  c #05638E",
"6  c #076A8D",
"7  c #0A6C8D",
"8  c #156483",
"9  c #156988",
"0  c #166A8B",
"q  c #196B8C",
"w  c #0A738B",
"e  c #0B798D",
"r  c #1C738E",
"t  c #1A768D",
"y  c #056792",
"u  c #076A92",
"i  c #0A6D92",
"p  c #116F90",
"a  c #1A6F90",
"s  c #0C7393",
"d  c #0E7A95",
"f  c #0B7599",
"g  c #0C7D9B",
"h  c #147593",
"j  c #1B7492",
"k  c #137C95",
"l  c #1C7C95",
"z  c #187698",
"x  c #127D99",
"c  c #1B7E99",
"v  c #26688D",
"b  c #23738C",
"n  c #2C758D",
"m  c #26788E",
"M  c #32758D",
"N  c #276891",
"B  c #217493",
"V  c #247B96",
"C  c #2B7B93",
"Z  c #257E98",
"A  c #2A7C9A",
"S  c #38759A",
"D  c #1E7FA2",
"F  c #43799D",
"G  c #0B8394",
"H  c #0E8996",
"J  c #0E829B",
"K  c #148396",
"L  c #1B8296",
"P  c #168897",
"I  c #13849C",
"U  c #1A839C",
"Y  c #148B9D",
"T  c #1B8A9D",
"R  c #17939F",
"E  c #1A949F",
"W  c #248397",
"Q  c #23859A",
"!  c #2C849C",
"~  c #258A9C",
"^  c #2B8B9D",
"/  c #31869D",
"(  c #328C9F",
")  c #24919C",
"_  c #2B939E",
"`  c #34959F",
"'  c #0D83A2",
"]  c #1185A1",
"[  c #1D85A2",
"{  c #158CA2",
"}  c #1B8CA2",
"|  c #198FA8",
" . c #1791A4",
".. c #1C92A4",
"X. c #1E99A3",
"o. c #1D95A9",
"O. c #1C9AAA",
"+. c #1D9EB0",
"@. c #2284A4",
"#. c #238DA2",
"$. c #2B8CA1",
"%. c #238DA9",
"&. c #3485A2",
"*. c #338CA1",
"=. c #398AA4",
"-. c #3C8AA8",
";. c #2294A5",
":. c #2D94A3",
">. c #239BA6",
",. c #2C9CA6",
"<. c #2296AA",
"1. c #2E95AD",
"2. c #259CAA",
"3. c #2B9DAC",
"4. c #3395A3",
"5. c #3B96A4",
"6. c #3599A5",
"7. c #3B9CA6",
"8. c #3797A8",
"9. c #349DA9",
"0. c #3D9CA9",
"q. c #239EB1",
"w. c #2B9FB1",
"e. c #3396B1",
"r. c #24A1A6",
"t. c #25A3AC",
"y. c #2BA3AC",
"u. c #27A9AF",
"i. c #2CA9AD",
"p. c #34A2A7",
"a. c #34A4AC",
"s. c #3DA4AC",
"d. c #32AAAF",
"f. c #3AAAAE",
"g. c #25A2B2",
"h. c #2BA4B2",
"j. c #27AAB2",
"k. c #2DABB4",
"l. c #2AA6B8",
"z. c #2DABB9",
"x. c #33A4B1",
"c. c #3AA5B3",
"v. c #33ACB3",
"b. c #3BADB4",
"n. c #3DA4B9",
"m. c #32ADB9",
"M. c #3CAEB8",
"N. c #2FB0B7",
"B. c #34B1B5",
"V. c #3AB3B6",
"C. c #37B8B3",
"Z. c #3BBAB6",
"A. c #34B4BA",
"S. c #3CB5BA",
"D. c #35B9BD",
"F. c #3DB9BA",
"G. c #408FA8",
"H. c #4295A6",
"J. c #4399A7",
"K. c #439CAA",
"L. c #4A9AAA",
"P. c #43A3AD",
"I. c #4AA6AF",
"U. c #53A1AE",
"Y. c #43A6B2",
"T. c #4BA5B1",
"R. c #43ABB5",
"E. c #4BABB3",
"W. c #43A7BD",
"Q. c #52ABB5",
"!. c #53AFBA",
"~. c #42B2B6",
"^. c #4AB2B6",
"/. c #44B5BB",
"(. c #49B5BB",
"). c #43BBBC",
"_. c #4ABBBE",
"`. c #53B3BA",
"'. c #57B4BA",
"]. c #54BABD",
"[. c #5CB9BD",
"{. c #63BABD",
"}. c #45C0BE",
"|. c #4AC2BE",
" X c #36B4C0",
".X c #44BDC2",
"XX c #4CBDC1",
"oX c #54BEC2",
"OX c #5BBDC2",
"+X c #63BCC1",
"@X c #68BCC3",
"#X c #46C1C3",
"$X c #4CC4C3",
"%X c #4EC8C3",
"&X c #53C3C4",
"*X c #5BC4C5",
"=X c #55C9C7",
"-X c #5ACAC7",
";X c #54C7C8",
":X c #5BC7C8",
">X c #55C9C8",
",X c #5BCBCA",
"<X c #63C3C6",
"1X c #6BC5C6",
"2X c #60C9C7",
"3X c #62C5C8",
"4X c #6BC7C8",
"5X c #63CBCB",
"6X c #6BCDCC",
"7X c #73C6CA",
"8X c #73CCCD",
"9X c #78CCCD",
"0X c #65D0CF",
"qX c #6BD1CF",
"wX c #73D0CF",
"eX c #65CFD0",
"rX c #64D0D1",
"tX c #6BD2D1",
"yX c #73D4D2",
"uX c #7AD4D3",
"iX c #7CD9D6",
"pX c #7FDBD8",
"aX c #80D9D7",
"sX c #83DDDA",
/* pixels */
"7 6 s { } { | | { g x } ;.<.Y Y I s i s d f ] ;.;.[ s s g { Y s < < : & & & & $ + O O X o o o o o @ o X     .   .       ",
"6 6 s I { T  .} I k d } <...Y I I s 6 i d d x } ..I s i d { ] i < , & $ % $ & % O X o . o o o o o o X X       .         ",
"6 6 s Y } {  . .I x d T >.o.Y J J i u s k d I } ;.T s s g { { s < < : $ % & & $ O O o o o o o o o o o .       .         ",
"s 7 s }  .....;.{ I I #.3.3.;.} Y g s e I [ } <.3.} g h d { | f 1 5 : & & & * & + O @ @ @ @ O O o o O o . . . . .   .   ",
"x k U ,.3.3.t.3.2.;...d.(./.b.V.x...J } 3.h.c./.(.c.} } o.<.<.[ f f < : > , , , & & = 3 3 3 $ $ $ $ $ O o . O + # # # # ",
"{ } o.d.b.v.k.v.y.2.y./.2X:X&X|.XX2.| <.~.).XX3X5XoXw.2.3.w.9.| ] g u < < 5 i 5 > > , S S 3 & $ & & & $ o O $ % & & $ & ",
"{ U ;.x.b.v.k.d.y.t.y./.5X5X%X=X.X2.{ o.S..XXX5XeXoX3.q.w.w.w.| ' g u < < 5 u 5 > : 2 S F N & $ & & & # . . # % & % & & ",
"o.} >.v.V.v.b.v.v.y.y.).5X5X=X=X$Xk.o.3..XXX&X5XeXoXh.w.w.c.c.<.{ ] u < 5 i f i < < 2 S S N : = & : : $ + + % & & & * : ",
"y.3.y.V.V.V./.).V.v.d._.,X,X,X,X:X/.m.W.oX;X:XeXqX*XM.v.M.M.M.w.o.o.x u i D [ ] x z z A S B 5 5 1 1 1 , : : : : : , 1 1 ",
"S.~.~.F.).).*X:X&XF.~.$X,X,XrXyXtX5X,X,XqX8X8XtXyX3XXXXX_.oXXXF.m.v.| g x +.l.h.q.q.1.@.@.D ] ' g f f f f f y , 1 f g g ",
").).).).)._.5X5X&X).).%X,X,XrXiXyXrXeXeXwXyXwXyXyX5X&XoXoX&XoX).m.m.o.g ] q.z.z.h.j.q.@.D [ ' | ' g g g g g y , y g g g ",
").).).F.).|.,X5X$X).~.%X,X,XrXtXyXqXeXeXtXwXwXwXwX3XoX&X$X&X&X/.S.m.o.] { q.z.z.k.k.q.@.[ [ | | ' g g g g g y < y g ' ' ",
"|.|.XX).)._.5X2X&X)..X$X,X,XtXiXyXtXtXtX8X8XwX8X6X5X*XoX&X*X&XXX.X.Xw.<.1.M..X XS. Xm.1.%.o.o.| o.| | { { { g f f D | | ",
"-X-X&X)./.$X:X:X=X#X#X>X,X,XrXyXtXiXiXiX8X7X7X5X4X3XOXOX*X2X:X:X;X;X.Xn.M.oX,X,X&XXX.Xw.w.h.q.l.q.l.h.g.q.+.| { | +.+.+.",
"2X5X:X).F.XX:X5X=X%X$X>X,X,XrXtXyXiXsXiX7X7X4X3XOX3X3X3X2X5X5X5XrXeXoXXXXXeXtXtXeX,X$Xm.z.z.m.z. XA.A.z.l.l.q.+.+. X X X",
"5X5X:X_..XXX2X5X=X$X$X>X,XrXtXiXyXsXsXiX9X7X7X4X:X@X3X3X3X2X5X5XrXeX&X.XXXeXtXtX,X,X$Xm.l.l.l.z.l.z.N.l.w.l.+.+.+. X X X",
"*X*X&X(._._.&X&X$X#X%X>X,X,X0XqXtXyXiXyX1X@X<X2X3X3X,X:X5X5X6X:X-X=X&X&X&X2X0X5X>X>X#XV.m.A.m.m.A.S. X Xm.z.g.g.g.N.A.D.",
"_._._.oX].`.).).#X%X%X>X,X,X>X,X,XqXwX6X].`.[.2X5X2X,X,X5X8X6X*X^.).&X2X2X:X>X=X%X#X.XF.Z.D..X.X.X.X.X X X XN.j.z.A.D.D.",
"V.V./.[.+X`.B.B.F.%X%X>X,X,X&X#X|.2X6X*XE.Y.^.2XeX,X,X,X5XuXuX].f.f.-XqXrX=X&X%X}.}.).#X}.}.;X;X&X#X$X#X#X.XF.D.D.D. XD.",
"V.B.~.+X@X].v.B.F.%X%X>X,X>X%X|.&X-X6X2X^.s.^.5XrXrX,X,X0XuXuX].p.d.*XwXtX>X%X%X}.F.}.}.}.#X;X>X;X%X$X$X.X.XF.D.D.D.D.D.",
"B.B.~.'.[.^.v.d.F.$X%X>X,X,X&X}.|.*X2X*XE.P.^.:X0X0X0X,XqX9X9X|.f.R.|.qX0X=X%X|.}.}..XF.}.#X;X>X;X%X%X#X#X.X XA.N.D. XD.",
"i.i.a.K.P.p.3.t.V.%X;X,XqX6X#XS.~.^.Q.I.f.p.~.&X=X,XtXyX6X1X1X{.^.`.<X0X-X|.).Z.Z.Z.Z..X#X#X>X>X=X=X;X;X>X;X XA.N.N.D.D.",
"t.r.r._ _ _ X.X.v.%X%X5XuXwX_.v.d.s.7.s.p.d.f.|.&X:XpXsX9X{.{.{.{.[.-X,X-X}.C.C.C.C.F..X#X#X,X,X,X,X>X,X,X:XD.j.N.N.N.N.",
"r.r.>.~ ~ T R R d.%X;X5XuX9X(.y.d.6.` 5.d.p.V._.&X5XsXsXwX{.{.{.{.{.*X-X=XZ.C.C.D.A.D..X#X$X,X,X,X,X,X5X5X5XF.N.j.N.N.A.",
"r.r.>.~ ~ ) R E d.$X&X5XuXwX(.k.p.7.` 7.p.d.b._.$X2XaXsX8X{.{.{.{.{.*X,X&XF.C.C.Z.D. X X#X$X>X,X,X>X>XrX,X,X XN.N.N.A.D.",
"E  .R P P ~ E E y.).).&X6X4X(.c.c.s.` 6.9.,.p.S.~.&XuXuX4X`.`.`.].].&X,X=X).C.Z.Z.F.}..X#X#X>X;X>X,X,X,X,X,X.XF.F.F.F. X",
"H H H G G P ) ) ,.v.B.).&X*X^.W.Y.7.` 5.) ) r.i.i.~.8X9X*XR.V.~.V.~.$X>X;X).Z.Z.).}..X#X#X#X$X$X$X,X,X,X-X,X&X#X|.&X&X&X",
"G G G G G P ) ) ,.d.d.~.&X|.^.R.Y.7.6.6.) ) ) y.t.~.6X9X[.b.f.S.Z.Z.$X>X&X).Z.).).}.#X#X#X#X#X#X%X,X,X>X=X-X&X&X;X=X>X-X",
"G G G G G P ) ) ,.i.d.~.&X&X^.R.Y.7.` ` ) ) ;.r.r.V.4X7X].b.c.C.D.Z.|.>X&X).F.).}.}.#X#X$X$X#X#X%X-X-X-X-X-X=X%X%X>X,X,X",
"G G H P T ) _ _ ,.i.i.V.(.(.R.c.s.s.7.s.:._ _ r.r.b.{.1X(.c.a.V.S.Z.).&X&X|._._.).#X.XF. X).#X).$X=X=X&X=X&X$X_.XX&X:X;X",
"G e T P.E.P.7.7.p.r.r.a.p.a.p.4.7.I.I.I.7.5.6.:.4.9.P.P.f.t.y.d.Z.S.F.F.).-X6X*XXX.XF.z.k.C.)._.(.(._._._._.~.F.F.XX&X&X",
"k G ^ '.|.`.P.P.p.r.r.3.3.p.6.:.6.I.Q.I.J.H.5.4.:.4.7.5.,.r.r.i.F.Z.F.Z.).2XyX5XXXF.S.i.u.d.~.(.(.(.(.(./.(.V.S.F.XXoXoX",
"K e ) '.+X`.P.P.p.r.r.,.,.,.6.:.6.T.!.Q.J.H.5.4.$.4.4.4.,.>.r.i.Z.S.Z.V.F.5XuX6XXXF.S.g.u.i./.(.(.(./.~.(.).V.M.Z._.&XoX",
"t k ~ E.!.E.P.P.p.y.y.3.:.,.:.4.6.P.T.I.K.J.5.:.:.4.4.4.,.r.r.d.C.V.C.V.F.*X6X6XXX/.F.k.u.k.~.~.~.~.~.~.~.~.V.V.B._.XXXX",
"V m C *.*.5.I.T.E.^.~.9.Q ~ 4.9.9.7.P.K.K.K.0.$.^ ^ *.^ :.9.3.y.y.y.v.V.Z.&X:X*XXX)./.M.b.b.B.B.d.y.y.y.a.i.d.v.M.F.).).",
"n M n j j / T.Q.'.*XOX0.l V :.a.p.6.` 4.P.T.0.^ ~ ^ ~ ^ ^ 6.6.:.;...i.B.V._.&XXX)./.(././.V.i.t.>.;...) E >.y.f.d.m.V.S.",
"M M n r q ^ U.!.'.3X3X0.j r 4.p.p.6.4.6.K.T.0.^ ~ W ~ ! ^ 6.5.:...;.i.C.V._.&XXX(./.(./..XM.g.u.O... .X.X.X.y.d.d.b.M.A.",
"n M n q 0 ! T.Q.`.OXOX8.l V :.p.9.4._ 6.P.T.0.^ W ^ ^ ~ :.6.9.4.;.>.y.v.B.).&XoXXXXX_./.^.M.u.u.>.}  ...X.X.p.b.b.B.A.V.",
"b n v q 9 Z K.Y.Y.Y.Y.:.l l ^ :.4._ $.*.K.T.L.( ^ ^ _ #.:.6.,.<.>.,.y.k.v.).&X&XOXOX].~.~.v.t.t.X. .E  .T E v.^.~.F.S.S.",
"q q 9 8 8 B 4.4.$.Q L L K k W Q Q ^ ^ *.L.U.L.( / ^ >.,.>.>.,.w.9.x.2.<.3.~.&X&X1X6X<Xb.b.d.i.i.>.R Y Y K Y c.OXoX/.S.V.",
"0 0 9 8 2 r $.4.~ k k K k K L W W ^ ^ ( L.U.L.( / *.3.2.2.,.2.9.c.x.y...>./.&X*X6X9X<Xb.f.f.d.i.>.Y Y H I Y ~.:XoXXXS.F.",
"0 0 9 8 8 j :.:.~ K k L L c L W W ^ ^ ( L.U.L.( / $.2.2.2.2.2.3.h.a.2.X.2.~.&X&X4X7X1Xb.v.d.i.y.>.R Y Y H Y c.OXoX/.S.F.",
"a j a 9 8 B ~ $.W L c L ~ ~ V t t W ! / H.L.H./ ! ^ ;...#.#.;.;.<.<.2.>.y.V._.(.oXOX].v.v.i.>.) X.R  .Y H I a.XXXXM.v.b.",
"c D c q q j c c c V V ^ 4.` t 9 9 m n ! ` G.=.C Z W U T T L W L c c <.y.y.M.V.V.b.V.b.v.v.>.P K T X.X.Y H I y.R.c.y.y.y.",
"[ } [ j j h h k z A V *.5.5.B ; ; n n C &.-.&.Z V c I K c j V h s s ;.k.k.d.v.v.i.r.u.i.k.X.e e U >.>.R H K <.x.x.2.>.>.",
"[ [ c j q h h h l V V &.J.5.m ; ; b n C &.-.&.Z V c K K k m r h s h ;.k.k.d.v.d.i.u.u.i.i.X.e e Y >.r. .J I >.c.x.2.>.>.",
"[ [ [ h j z c L l W A $.4.*.r ; 8 b m C &.&.! V l c x K k l l z x K ;.g.k.x.v.k.i.i.i.k.v.>.d e T >.2.E K K ;.9.3.2.r.2.",
"[ [ [ c x L T #.@.! Q ~ ~ T 0 ; 4 B A C z z z k k x h x k K K T %.$.<.<.2.k.B.B.i.u.k.B.V.y.T P E 3.2...T Y %.<.<.2.t.t.",
"@.@.[ K K T ;.<.$.$.~ c c x 4 ; ; j A V p p p x x d s s k I I ;.9.3.2.;.;.k.b.z.k.k.k.B.F.d.#.T ;.y.y.;.} } } } } >.y.3.",
"@.[ [ U I T <.,.%.~ @.W x s w - ; B A V i 7 s s x s s w d J H ;.a.p.;.#...k.A.B.k.g.z.Z.F.x.#.} ;.y.y.;.} } [ T T 2.y.y.",
"@.@.%.I I T :.<.#.$.$.L x k 7 ; 4 B A A h s h g d g d s d H I X.3.3.<.;.>.k.A.z.h.y.k.Z.S.x.;.@.<.3.y.;.} T } T } 2.3.q.",
"e.e.1.<.;.<.#.#.#.#.%.U x I h 7 w j B j h s x I { I I J Y Y Y <.h.k.x.c.x.v.N.k.k.k.v.v.B.v.,.<.3.g.h.<.{ { { T } o.o.o.",
"n.W.n.g.g.2.} } #.;...Y I J g d d h a j x J J  . . .{ Y { { { 2.m.h.M.W.~.m.k.N.k.d.x.v.b.x.w.w.x.j.h.<.Y { { { { | | | ",
"W.W.n.k.k.t.} U } ....} ' J g g g h a a x J I  .O. . . . . . .2.z.m.S.XX/.V.k.k.v.v.v.k.k.x.x.x.h.h.j.O.{ ] { { { { { | ",
"W.W.n.k.h.3.} } } ;.o.T I ] J g g h j j J J I  .O. .{ R  .Y  .2.z.v.V.XX).N.k.N.k.v.v.k.v.x.c.x.h.h.g.O. .I ] ] { { { | ",
"1.1.3.h.k.g.} } o.} } | | | { J I h h h J J Y O.O. . . ...<.o.q.v.l.S.~.S.B.N.N.v.v.v.h.y.y.v.c.m.k.k.O. . . . .| o.<.<.",
"c c } h.m.w.<.o.} } { <.3.2...{ { I d d ' Y { +.+.O.{ Y o.2.w.h.l.h.m.F.Z.A.v.N.m.b.k.2.<.h.V.W.M.x.k.t. .O. . .O.3.w.3.",
"s s [ h.m.h.<.o.o.[ } <.g.w.o...{ I g J I {  .+.u.O. .{ ;.h.w.h.w.l.m.D.A.B.B.B.v.m.k.O.O.y./..XM.v.v.2.O.O.O.o.<.y.x.x.",
"d s I h.m.g.<.o.} { { <.k.w.o... .J g J ] ] | t.g.O.Y Y <.g.h.g.l.l.v.D.D.B.B.B.M.m.k.<.O.g.W..XM.v.v.g.O.O.o...<.w.c.w.",
"h h [ h.m.h.O.o.o.[ } <.g.h...}  .J g J I ] { O.g.O.{ { ;.g.g.j.g.h.B.D.A.A.B.v.v.B.k.O.O.g.F./.M.x.v.t.O.O.O.o.<.w.c.x."
};
