/* XPM */
static char *ff3f7f0955e046f9908d310bdea2ac9a4kDlsrkKxxBl9Ogs[] = {
/* columns rows colors chars-per-pixel */
"60 60 134 2 ",
"   c #242554",
".  c #282757",
"X  c #262857",
"o  c #282957",
"O  c #272758",
"+  c #272958",
"@  c #2A2B5C",
"#  c #2D305F",
"$  c #2E2E62",
"%  c #302F64",
"&  c #2E3263",
"*  c #313066",
"=  c #33336A",
"-  c #34396D",
";  c #373770",
":  c #363A71",
">  c #393C74",
",  c #3A3F78",
"<  c #3A4176",
"1  c #3D447C",
"2  c #40467E",
"3  c #3E4580",
"4  c #3F4680",
"5  c #3F4680",
"6  c #3F4981",
"7  c #3E4880",
"8  c #414781",
"9  c #404681",
"0  c #404880",
"q  c #404882",
"w  c #404883",
"e  c #414883",
"r  c #404983",
"t  c #434983",
"y  c #404884",
"u  c #424984",
"i  c #414A84",
"p  c #414B85",
"a  c #434A85",
"s  c #434A86",
"d  c #424B86",
"f  c #434B87",
"g  c #444B85",
"h  c #424C86",
"j  c #424C87",
"k  c #434C87",
"l  c #424D87",
"z  c #434E87",
"x  c #444C86",
"c  c #444D86",
"v  c #444D87",
"b  c #424A84",
"n  c #434C88",
"m  c #434D88",
"M  c #434D89",
"N  c #434E89",
"B  c #444C88",
"V  c #444D88",
"C  c #444E88",
"Z  c #454F88",
"A  c #444E89",
"S  c #454E89",
"D  c #444F8A",
"F  c #454F8A",
"G  c #444E8B",
"H  c #454E8B",
"J  c #464E8A",
"K  c #464F8B",
"L  c #454F8C",
"P  c #454E89",
"I  c #484E8A",
"U  c #484E8B",
"Y  c #45508B",
"T  c #46508B",
"R  c #45508C",
"E  c #45518C",
"W  c #46508C",
"Q  c #47538E",
"!  c #46508B",
"~  c #48538D",
"^  c #49558E",
"/  c #49568F",
"(  c #49538E",
")  c #495490",
"_  c #495690",
"`  c #4A5791",
"'  c #495592",
"]  c #4A5592",
"[  c #4A5593",
"{  c #495692",
"}  c #4A5692",
"|  c #4A5693",
" . c #4B5693",
".. c #4B5793",
"X. c #4A5591",
"o. c #4C5994",
"O. c #4E5A95",
"+. c #4C5896",
"@. c #4D5996",
"#. c #4E5997",
"$. c #4C5A96",
"%. c #4D5A96",
"&. c #4D5A97",
"*. c #4E5A96",
"=. c #4F5B97",
"-. c #4E5C97",
";. c #4E5A96",
":. c #4E5B98",
">. c #4F5C98",
",. c #4F5D98",
"<. c #4F5C99",
"1. c #4F5D99",
"2. c #4F5E99",
"3. c #4F5E9A",
"4. c #4F5C99",
"5. c #505D97",
"6. c #505B96",
"7. c #505E99",
"8. c #505C9A",
"9. c #505D9A",
"0. c #515C9B",
"q. c #515F9D",
"w. c #545F9D",
"e. c #505D9A",
"r. c #51619E",
"t. c #55629F",
"y. c #54649F",
"u. c #53609C",
"i. c #5363A1",
"p. c #5562A0",
"a. c #5463A1",
"s. c #5364A0",
"d. c #5364A1",
"f. c #5464A0",
/* pixels */
"@ ^ } Y $.d.d.i.r.h @ } } K $.f.>.L R u @ ^ } >.a.$.K I I t @ } } K $.a.t.a.q.u @ } } K $.y.>.R L t @ } } >.y.$.K R R ( ",
"@ c u > 1 6 1 g u > @ h u 1 t K 1 : 1 > @ h < 1 K t 1 1 1 - @ K t : 1 t 1 K u > @ K u 1 t c 1 : 1 > @ K < 1 c 8 1 1 < > ",
"@ 1 > @ $ $ @ = = = @ 1 > = = = $ @ = = + 1 & $ = = = = *     1 > @ $ @ @ = = = @ 4 > = = = $ @ = = @ 1 & $ = = = = * @ ",
"@ 1 > = = @ @ = = = @ 1 > = @ @ = = = = @ 1 > = $ @ = = = * + 1 > = = @ @ = = = @ 4 > = @ @ = = = = @ 1 ; = @ $ = = = = ",
"@ 1 = @ * * @ $ = = @ 1 > $ @ @ $ = $ * @ 2 - @ $ * = = $ = @ 1 = @ * * @ $ = = @ 4 > $ @ @ % = $ = @ 1 = @ @ * = = $ = ",
"@ < &   @ = $ + * * + < ; @ @ @ @ $ + $ + 1 $   @ = = $ X $ + < @   @ = $ @ = * @ 1 ; @ @ @ @ $ + % @ < $   @ = = $ O = ",
"  X                                       X                   +                   X                   X               o ",
"1 : - - @ & < - : < 1 1 1 : @ & < ; : < 1 : ; ; @ & < : 1 1 < ; - - @ & < - : < < < < : @ & < - : 1 < ; - - @ & < : 1 1 ",
"5.R m m = > $.u K >.-.>.7.} = > $.m Y >.>.K h K = > $.K 7.7.$.K u m = < $.u K >.-.>.>.R = < :.m R 7.7.m h K = < $.K 7.w.",
"@ = ; ; @ - t = @ = & - > ; @ - t = ; > ; $ = ; @ - 1 $ > ; $ = = = @ - t = @ = $ = > > $ - t ; ; > ; @ = ; $ - 1 $ ; > ",
"$ @ = = @ = 4 = $ *   * = = @ = 1 = = $ = $ = = @ - 1 $ = $ @ $ = = @ = 8 = $ *   * = = @ - 8 = = $ = $ = = @ - 1 $ = $ ",
"=   $ = @ = 1 = = = @ * = = @ - 4 = * @ * = = = @ - 4 = * @ * O * = @ = 1 = = = @ * = = @ - 8 = % @ * = = = @ - 2 = $ @ ",
"@   % = @ = <   @ = = @ * = @ - 8 * @ * @ * @ $ @ - <   @ * +   * = @ - <   @ = = @ * = @ - 8 * @ % @ = @ % @ - <   @ = ",
"    @ $ O @ &     @ @   @ @   @ = @   @   @   @   @ &     @     @ @ o @ &     @ @   @ @   @ = @   @   @   @   $ &     $ ",
"X @ @ @ @ @ @ @ @ +   @ @ @ @ @ @ @ @ +   @ @ @ @ @ + @ @ +   @ @ @ @ @ @ @ @ +   @ @ @ @ @ @ + + X   @ @ @ @ @ + @ @ @ ",
"@ c K t ( :.:.:.$.1 @ c K t ( >.} t t 1 @ c Y ^ -.^ t t t 1 @ c K t ( ........1 @ Y K t ( 6.^ t u 1 @ Y K } $.( u u u c ",
"@ c u > 1 t 1 K g < @ c u 1 t K 1 : 1 > @ K 1 1 K t 1 1 1 - @ K u > 1 t 1 c g > @ K u 1 t K 1 : 1 > @ K < 2 c t 1 1 < > ",
"@ 1 > @ @ $ @ = = = @ 1 > = = = $ @ = = @ 1 & $ = = = = =   X 1 > @ $ $ @ = = = @ 1 > = = = $ @ = = @ 1 & $ = = = = * @ ",
"@ 1 > = = $ @ = = = @ 1 > = $ @ = = = = @ 1 > = @ @ = = = * + 1 > = = @ @ = = = @ 1 > = @ @ = = = = @ 1 ; = @ $ = = = = ",
"@ 1 = @ * * @ $ = = @ 1 > $ @ @ $ = $ = @ 1 - @ @ % = = $ = @ 1 = @ * * $ $ = = @ 4 > $ @ @ % = $ = @ 1 = @ @ * = = $ = ",
"@ < &   @ = $ + = * + < ; @ @ @ @ $   % @ < $   @ = = $   % + < $   @ = $ + = * @ < ; @ @ @ @ $ o % @ < @   @ = = $   = ",
"  X                   X                   X                   X                   +                   X               o ",
"1 : - ; @ & < - : 1 1 1 1 > @ & < - ; < < - - - @ & > > 1 1 1 ; - - @ & < - ; 1 1 1 1 : @ & < - - 1 < : - - @ & < : 1 2 ",
"7.R m K = : $.u K 7.>.7.q.) = > $.K K >.7.K h m = < $.K 7.7.$.K g K = < $.h K 6.>.7.7.( = < $.m Y 7.>.K h K = < $.Y 7.u.",
"& = ; ; @ - u = @ = $ = > > @ - u ; ; > > $ = = @ - 1 $ ; - $ = ; ; @ - u = @ = $ = > ; @ - t ; ; > ; @ = ; @ - 1 $ ; > ",
"$ @ = = @ = 4 = $ *   * = = @ = 8 = = $ = $ * = @ - 1 $ = @ @ @ = = @ - 4 = $ *   * = = @ - 4 = = $ = $ = = @ - 1 $ = $ ",
"=   $ = @ = 4 = = = @ * = = @ = 8 = * @ * = = = @ - 1 = * @ % O * = @ - 1 = = = @ % = = @ - 4 = $ @ * = = = @ - 1 = $ @ ",
"o   $ = @ = <   @ = = @ * = @ - 8 * @ % @ * @ $ @ - <   @ *     * = @ - <   @ = * @ * = @ - 4 * @ % @ = @ % @ - <   @ = ",
"    @ @   @ &     @ @   @ $ + @ = @   @   @   @ O @ &     @     @ @   @ &     @ @   @ $   @ = @   @   @   @   @ &     $ ",
"X @ @ + @ @ @ @ @ +   @ @ + @ @ @ + @ +   @ @ @ @ @ @ @ @ +   @ @ + @ @ @ @ @ +   @ @ + @ @ @ @ @ +   @ @ @ @ @ + + + @ ",
"@ K Y t ( -.-.-.$.6 @ c Y u ^ 5.} u u 1 @ K K } >.( t t t 1 @ Y Y t ) >.>.>.$.1 @ Y K t ^ -.^ u u 1 @ Y K } -.( u u u c ",
"@ K u : 1 t 1 K u < @ c u 1 8 K 4 > 1 > @ K < 1 K t 1 1 1 = @ K u : 1 t 1 c u , @ K u 1 t c 1 : 1 > @ K < 1 c 8 1 1 < > ",
"@ 1 > @ $ @ @ = = = @ 1 > = = = $ @ = = @ 1 & $ = = = = *     1 > @ $ @ @ = = = @ 2 > = = = $ @ = = @ 1 & $ = = = = * @ ",
"@ 1 > = = $ @ = = = @ 1 > = $ @ = = = = @ 1 > = @ @ = = = * @ 1 > = = @ @ = = = @ 1 > = $ $ = = = = @ 1 ; = @ @ = = = = ",
"@ 1 = @ * * @ $ = = @ 1 > $ @ @ % = $ = @ 1 - @ @ & = = $ * @ 1 = @ * * @ $ = = @ 4 > $ @ @ $ = $ * @ 1 = @ @ * = = $ = ",
"@ < $   @ = $ + = * + < ; @ @ @ @ $ O % @ < @   @ * = $ + $ + < $   @ = @ + = * @ 1 ; @ @ @ @ $ + $ @ < $   @ = = $   = ",
"  X                   X                   X                   X                   X                   X               o ",
"1 ; - - @ & > - ; < 1 1 < : @ & < - ; < < ; - - @ & < : < < < ; - ; @ & < - ; < < < < : @ & < - ; < < - - - @ & < : < 1 ",
"5.Y m K = : $.h K >.>.7.q.) = > :.K R >.>.K u K = > $.Y 7.7.$.K K K = < :.u K >.-.>.7.( = < :.K R 7.7.K g K = < $.Y >.r.",
"@ = ; ; @ - u = @ - $ = > ; $ - u ; ; > ; $ = ; @ - 1 $ > ; $ - ; ; @ - u = @ = $ = > ; @ - t ; ; > ; @ = ; @ - 1 $ ; > ",
"$ @ = = @ = 8 = $ *   * = = @ = 1 = = $ = $ = = @ - < $ = @ @ @ = = @ - 4 = $ * . * = = @ - 8 = = $ = $ = = @ - 1 $ = $ ",
"= X & = @ = 1 = = = @ % = = @ = 4 = * @ * = = = @ - 1 = * @ %   % = @ - 4 = = = @ * = = @ - 8 = % @ * = = = @ - 1 = % @ ",
"@   % = @ - <   @ = = @ * = @ - 8 * @ * @ * @ $ @ - <   @ * X   * = @ - <   @ = = @ * = @ - 8 * @ * @ = @ % @ - <   @ = ",
"    @ $   @ &     @ @   @ $ O @ = @   @   @   @   @ &     @     @ @   @ &     @ @   @ $   @ = @   @   @   @ O @ &     $ ",
"X @ @ @ @ @ @ @ @ +   @ @ @ @ @ @ @ + +   @ @ @ @ @ + + + X   @ + + @ @ @ @ @ +   @ @ + @ @ @ @ @ +   @ @ @ @ @ @ @ @ @ ",
"@ c Y u ( $.$.$...1 @ K K t ( $.} u u 1 @ c K ^ 6.^ u u u 1 @ c K u ( $.$.$.$.1 @ K K u ) :.} u u 1 @ Y L } :.( u u u c ",
"@ K u > 1 t 1 c u , @ K t 1 8 c 1 : 1 > @ c < 1 K 8 1 1 1 - @ K u : 1 t 1 c u > @ K u 1 t K 1 : 1 > @ K 1 1 c 8 1 1 < > ",
"@ 1 > @ $ @ @ = = = @ 1 > = = = $ @ = = @ 1 & $ = = = = *   X 1 > @ $ @ @ = = = @ 1 > = = = $ @ = * @ 4 & $ = = = = * @ ",
"@ 1 > = = $ @ = = = @ 1 > = @ @ = = = = @ 1 > = @ @ = = = * @ 1 > = = @ @ = = = @ 1 > = $ $ = = = = @ 4 ; = $ @ = = = = ",
"@ 1 = @ * * @ $ = = @ 1 > $ @ @ $ = $ = @ 1 = @ @ * = = $ = @ 1 = @ * * @ $ = = @ 2 > $ @ @ $ = $ * @ 4 = @ @ % = = $ = ",
"@ < &   @ = $ + = * + < ; @ @ @ @ % @ % @ < $   @ = = $   $ + < $   @ = $ @ = * + 1 ; @ @ @ @ $ X % @ 1 @   @ = = $   = ",
"  X                   X                   X                   X                   X                   X               o ",
"1 - - - @ & < - - < 1 1 1 : @ & < - : < < ; - - @ & > : 1 1 < : - - @ & > - ; 1 1 1 1 > @ & < - : 1 1 ; - - @ & < : < 1 ",
"5.Y m K = > $.m K 7.7.7.7.} = > $.m R 7.6.K g K = > $.Y 7.7.:.R m m = > $.h K >.>.7.7.( = < $.m R q.7.K g K = < $.R 7.r.",
"# = ; ; $ - u = @ = $ = > ; @ - t ; ; > ; @ = ; @ - < @ > ; $ = = = @ - u = $ = $ = > ; @ - t ; ; > ; @ = ; @ - < $ ; > ",
"$ @ * = @ = 4 = $ *   * = = @ = 8 = = $ = $ = = @ - 1 $ = @ @ @ = = @ - 4 = $ =   * = = @ - 4 = = $ = $ = = @ - 1 $ = $ ",
"=   $ = @ - 4 = = = @ $ = = @ = 8 = * @ * = = = @ - 1 = * @ * + * = @ - 1 = = = @ * = = @ - 4 = % @ * = = = @ - 1 = % @ ",
"@   % = @ - <   @ = = @ * = @ - 8 * @ $ @ * @ $ @ - <   @ * +   * = @ - <   @ = = @ * = @ - 8 * @ % @ * @ % @ - <   @ = ",
"    @ $ @ @ &     @ @   @ $ + @ = @   @   @   @ + $ &     @     @ $ + $ &     @ @   @ $ + $ = @   @   @   @ + $ &     $ ",
"                                                                                                                      X "
};
